<svg width="25" height="25" viewBox="0 0 25 25" fill="none" xmlns="http://www.w3.org/2000/svg">
<g clip-path="url(#clip0)">
<path fill-rule="evenodd" clip-rule="evenodd" d="M23.9584 1.07059H1.04165V1.07059H1.04163V23.9292H23.9584L23.9584 23.9292V1.07059ZM23.9584 23.9292L1.04165 23.9292V1.07059H23.9584V23.9292ZM25 24.9974H0V0.00244141H25V24.9974ZM16.5 8.78269C16.4063 8.78269 16.375 8.82545 16.375 8.91089H16.3854V17.328C16.3854 17.4135 16.4167 17.4669 16.5209 17.4669H18.1354C18.2396 17.4669 18.2604 17.4241 18.2604 17.3387V8.91089C18.2604 8.81473 18.2187 8.78269 18.1354 8.78269H16.5ZM18.3855 6.48616C18.3855 5.83458 17.9584 5.39665 17.323 5.39665C16.7292 5.39665 16.2604 5.80254 16.2604 6.48616C16.2604 7.19113 16.6979 7.5757 17.3021 7.57566C17.9376 7.57566 18.3855 7.19113 18.3855 6.48616ZM11.2157 11.0147C11.3563 11.5641 11.4833 12.0607 11.5729 12.4251H9.10422C9.5417 10.7695 10.0938 8.65453 10.3125 7.40478H10.3333C10.5138 8.2704 10.899 9.77657 11.2157 11.0147ZM7.85418 17.3601L8.67711 14.1556H12.0104L12.8646 17.3707C12.8854 17.4455 12.9375 17.4668 13.0208 17.4668H14.75C14.8333 17.4668 14.8542 17.4134 14.8333 17.328L11.5209 5.80254C11.5 5.7171 11.4687 5.69574 11.3958 5.69574H9.20833C9.15625 5.69574 9.12501 5.72778 9.12501 5.80254C9.10418 6.32591 9.07293 6.49684 9.02085 6.68908L6.06254 17.3066C6.04166 17.4348 6.06254 17.4668 6.16669 17.4668H7.69795C7.8021 17.4668 7.83334 17.4455 7.85418 17.3601Z" fill="white"/>
</g>
<defs>
<clipPath id="clip0">
<rect width="25" height="25" fill="white"/>
</clipPath>
</defs>
</svg>
