<svg width="25" height="25" viewBox="0 0 25 25" fill="none" xmlns="http://www.w3.org/2000/svg">
<g clip-path="url(#clip0)">
<path fill-rule="evenodd" clip-rule="evenodd" d="M0 0V25H24.995V0H0ZM1.04145 1.06838H23.9535V23.9316H1.04145V1.06838Z" fill="#F9FAF7"/>
<path fill-rule="evenodd" clip-rule="evenodd" d="M23.9559 1.06836H1.04395V23.9316H23.9559V1.06836ZM6.2425 17.3467L7.06734 14.156H10.401L11.2602 17.3644C11.2773 17.4347 11.329 17.468 11.4148 17.468H13.1332C13.2192 17.468 13.2363 17.4152 13.2192 17.3269L9.90259 5.82169C9.8853 5.73365 9.85093 5.71592 9.7824 5.71592H7.60004C7.54838 5.71592 7.51401 5.75118 7.51401 5.82169C7.49693 6.35043 7.46257 6.50342 7.41091 6.69722L4.45537 17.3094C4.43808 17.4327 4.45537 17.468 4.55847 17.468H6.08774C6.19085 17.468 6.22522 17.4347 6.2425 17.3467ZM9.60897 10.9383C9.75967 11.5174 9.89623 12.0422 9.99007 12.4216L7.49985 12.4205C7.55079 12.224 7.60362 12.0211 7.65755 11.814C8.05842 10.2744 8.51999 8.5017 8.71689 7.39851H8.73397C8.90893 8.24807 9.29052 9.71447 9.60897 10.9383ZM17.8412 15.93C16.2603 15.93 15.5901 14.9606 15.5728 13.515V13.5149H18.288C19.1988 13.5149 19.8174 13.4796 20.0236 13.4443C20.1095 13.4268 20.1438 13.3957 20.1611 13.3077C20.2126 13.1139 20.2469 12.6907 20.2469 12.1795C20.2469 10.593 19.4565 8.63633 17.1883 8.63633C14.9542 8.63633 13.6826 10.6987 13.6826 13.2195C13.6826 15.5465 14.7138 17.6265 17.4631 17.6265C18.3223 17.6265 19.0072 17.5032 19.557 17.2211C19.6257 17.1682 19.6601 17.1154 19.6601 17.0096V15.6698C19.6601 15.5817 19.6084 15.564 19.5397 15.5993C18.9898 15.8462 18.4597 15.93 17.8412 15.93ZM18.4598 12.0284C18.4083 12.0459 18.2191 12.0459 17.6864 12.0459H15.5901C15.6933 11.094 16.1229 10.1951 17.1195 10.1951C18.202 10.1951 18.4771 11.2628 18.4771 11.8446C18.4771 11.869 18.4734 11.8952 18.4694 11.9232C18.4648 11.9557 18.4598 11.9906 18.4598 12.0284Z" fill="white"/>
</g>
<defs>
<clipPath id="clip0">
<rect width="25" height="25" fill="white"/>
</clipPath>
</defs>
</svg>
