<svg width="26" height="25" viewBox="0 0 26 25" fill="none" xmlns="http://www.w3.org/2000/svg">
<path fill-rule="evenodd" clip-rule="evenodd" d="M3.72354 25C1.94326 25 0.5 23.5569 0.5 21.7765V3.22354C0.5 1.44326 1.94307 0 3.72363 0H22.2765C24.0567 0 25.5 1.44307 25.5 3.22363V21.7765C25.5 23.5567 24.0569 25 22.2764 25H3.72354ZM10.867 7.51807V11.0584H14.2377C14.8313 11.0584 15.3189 10.9171 15.7005 10.6344C16.0821 10.3518 16.2729 9.89238 16.2729 9.25635C16.2729 8.90313 16.2093 8.61338 16.0821 8.38721C15.9549 8.16113 15.7852 7.98447 15.5733 7.85723C15.3613 7.72998 15.1175 7.6417 14.8419 7.59229C14.5663 7.54277 14.2802 7.51807 13.9833 7.51807H10.867ZM7.53856 20.0684V4.93164H14.6617C15.3825 4.93164 16.0397 4.99521 16.6333 5.12246C17.2269 5.24961 17.7357 5.45811 18.1597 5.74785C18.5837 6.0376 18.9123 6.42275 19.1455 6.90322C19.3787 7.38379 19.4953 7.97734 19.4953 8.68398C19.4953 9.44727 19.3222 10.0832 18.976 10.592C18.6297 11.1008 18.1173 11.5178 17.4389 11.8428C18.3717 12.1113 19.0678 12.5813 19.5271 13.2526C19.9864 13.9239 20.2161 14.733 20.2161 15.68C20.2161 16.4432 20.0678 17.1039 19.7709 17.6622C19.4741 18.2204 19.0748 18.6763 18.5731 19.0296C18.0714 19.3829 17.499 19.6443 16.856 19.814C16.2129 19.9836 15.5521 20.0684 14.8737 20.0684H7.53856ZM10.867 13.3268V17.4819H14.4285C14.7536 17.4819 15.0644 17.4501 15.3613 17.3866C15.6581 17.3229 15.9196 17.217 16.1457 17.0686C16.3719 16.9202 16.552 16.7188 16.6863 16.4644C16.8206 16.21 16.8878 15.885 16.8878 15.4892C16.8878 14.7118 16.6686 14.1571 16.2306 13.825C15.7924 13.4928 15.2129 13.3268 14.4921 13.3268H10.867Z" fill="#F9FAF7"/>
</svg>
