<svg width="25" height="25" viewBox="0 0 25 25" fill="none" xmlns="http://www.w3.org/2000/svg">
<path fill-rule="evenodd" clip-rule="evenodd" d="M2.27555 22.5017L0 0H25L22.7216 22.498L12.4845 25L2.27555 22.5017ZM12.5 11.8996H16.6226L16.9065 8.40828H12.5V8.41083H4.96883L4.90412 7.64466L4.76205 5.9154L4.6875 5H12.5H20.3125L20.238 5.91513L19.4925 15.0632H19.5158L18.9709 19.3735L18.9243 19.7486L12.524 21.0056V21.0108H12.5056L6.094 19.7466L5.65498 16.2653H8.79445L9.01749 18.0335L12.5028 18.7006H12.5084V18.6985L15.9994 18.0314L16.3448 15.3125H12.5V11.8996ZM12.4887 15.3125V11.9017H12.4873H8.77802L8.85257 12.8171L8.99464 14.5463L9.05513 15.3125H12.4887Z" fill="#F9FAF7"/>
</svg>
