<svg width="100" height="40" viewBox="0 0 100 40" fill="none" xmlns="http://www.w3.org/2000/svg">
<path d="M0 6C0 2.68629 2.68629 0 6 0H94C97.3137 0 100 2.68629 100 6V34C100 37.3137 97.3137 40 94 40H6C2.68629 40 0 37.3137 0 34V6Z" fill="white"/>
<path d="M2.62475 27.7146V18.4922H15.9642V17.9528H2.62475V9.53929H16.8076V9H2V28.2539H16.9325V27.7146H2.62475ZM28.9601 14.3932L23.4307 20.6764L18.026 14.3933H17.2137L23.0557 21.081L16.6512 28.2537H17.4011L23.4303 21.4851L29.4909 28.2537H30.2718L23.8364 21.0807L29.7095 14.393L28.9601 14.3932ZM32.1464 33V24.3709H32.2089C32.5839 25.6293 33.3232 26.6406 34.427 27.4047C35.5308 28.1686 36.9365 28.5507 38.6442 28.5507C39.7481 28.5507 40.727 28.3575 41.5809 27.971C42.4347 27.5845 43.148 27.0586 43.7208 26.3934C44.2934 25.7282 44.7309 24.9552 45.0329 24.0743C45.3348 23.1935 45.4859 22.2675 45.4859 21.2969C45.4859 20.2541 45.3296 19.2922 45.0172 18.4114C44.7048 17.5305 44.2518 16.7664 43.6584 16.1193C43.0647 15.4721 42.3462 14.9686 41.5027 14.6093C40.6593 14.2496 39.7064 14.0698 38.6442 14.0698C37.832 14.0698 37.0771 14.1732 36.3794 14.3799C35.6817 14.5868 35.0623 14.8787 34.5208 15.2563C33.9761 15.6368 33.502 16.087 33.1149 16.5911C32.7193 17.1035 32.4172 17.6653 32.2089 18.2766H32.1464V14.3932H31.5217V33H32.1464ZM38.6442 28.0381C36.6867 28.0381 35.1142 27.4584 33.9271 26.2989C32.7401 25.1394 32.1464 23.4719 32.1464 21.2966C32.1464 20.3977 32.2923 19.5437 32.5839 18.7348C32.8754 17.9259 33.2971 17.2157 33.8489 16.6045C34.4009 15.9932 35.0831 15.5078 35.8951 15.1484C36.7074 14.7887 37.6239 14.6089 38.6442 14.6089C39.6856 14.6089 40.5969 14.7887 41.3778 15.1484C42.1587 15.5078 42.8045 15.9978 43.3147 16.618C43.8249 17.2382 44.2102 17.9484 44.4706 18.7483C44.7309 19.5483 44.861 20.3977 44.861 21.2966C44.861 22.1057 44.7414 22.9102 44.5017 23.7101C44.2623 24.5101 43.8926 25.2292 43.3927 25.8676C42.893 26.5056 42.2527 27.0269 41.4716 27.4315C40.6904 27.836 39.7481 28.0381 38.6442 28.0381ZM48.9222 28.2539V20.4067C48.9222 19.6517 49.0471 18.9145 49.2972 18.1955C49.547 17.4764 49.9323 16.8426 50.453 16.2944C50.9737 15.7461 51.6348 15.3146 52.4367 15C53.2385 14.6853 54.1914 14.555 55.2952 14.6089V14.0696C54.3371 14.0518 53.4989 14.1415 52.7804 14.3393C52.0618 14.5371 51.4423 14.8067 50.9216 15.1484C50.4009 15.4899 49.9844 15.8898 49.6721 16.3483C49.3599 16.8061 49.1283 17.3014 48.9847 17.8179H48.9222V14.3932H48.2975V28.2541L48.9222 28.2539ZM56.0761 21.4314H69.5092C69.551 20.4786 69.4417 19.5619 69.1812 18.6809C68.921 17.8 68.5044 17.0179 67.9317 16.3349C67.3589 15.6517 66.6196 15.1034 65.7136 14.6899C64.8076 14.2763 63.7299 14.0696 62.4804 14.0696C61.5847 14.0696 60.71 14.2315 59.8561 14.5552C59.0023 14.8787 58.2524 15.3505 57.6069 15.9707C56.9613 16.5909 56.4406 17.3505 56.045 18.2496C55.6494 19.1483 55.4514 20.173 55.4514 21.3236C55.4514 22.3483 55.5867 23.3056 55.8575 24.1955C56.1282 25.0853 56.5447 25.8585 57.107 26.5146C57.6695 27.1708 58.3933 27.6787 59.2783 28.0381C60.1633 28.3978 61.2307 28.5685 62.4804 28.5506C64.313 28.5506 65.8542 28.1055 67.1037 27.2158C68.3534 26.3258 69.0927 25.0719 69.3219 23.4539H68.6971C68.4264 24.9821 67.7338 26.1282 66.6196 26.8921C65.5053 27.6562 64.1049 28.0381 62.4177 28.0381C61.2723 28.0381 60.3039 27.8674 59.5124 27.5259C58.7212 27.1844 58.0754 26.7168 57.5756 26.1236C57.0759 25.5303 56.7061 24.8337 56.4667 24.0336C56.2271 23.2338 56.0969 22.3663 56.0761 21.4314ZM68.8844 20.8921H56.0763C56.1386 19.9213 56.3469 19.0495 56.7009 18.2765C57.0551 17.5033 57.5184 16.8426 58.0912 16.2944C58.6638 15.7461 59.3304 15.3282 60.0905 15.0404C60.8506 14.7528 61.6681 14.6089 62.5428 14.6089C63.5842 14.6089 64.5003 14.7753 65.2919 15.1079C66.0832 15.4405 66.7445 15.8945 67.2757 16.4697C67.8067 17.0449 68.2076 17.7147 68.4783 18.4786C68.7491 19.2427 68.8844 20.0473 68.8844 20.8921ZM82.4739 18.4922H83.0986C83.0986 16.946 82.5779 15.8225 81.5367 15.1213C80.4952 14.4202 79.079 14.0696 77.288 14.0696C76.2883 14.0696 75.4449 14.1776 74.7575 14.3933C74.0703 14.6089 73.508 14.8876 73.0706 15.2291C72.6333 15.5706 72.3209 15.9482 72.1334 16.3618C71.9459 16.7753 71.8522 17.1709 71.8522 17.5483C71.8522 18.3033 72.0084 18.9056 72.3209 19.355C72.6333 19.8045 73.1227 20.1551 73.7891 20.4067C74.2473 20.5864 74.7678 20.7482 75.3511 20.8923C75.9342 21.036 76.6111 21.1888 77.3818 21.3505C78.0689 21.4945 78.7458 21.6383 79.4124 21.782C80.0788 21.9259 80.6671 22.1191 81.1773 22.3617C81.6877 22.6045 82.1041 22.9146 82.427 23.2922C82.7497 23.6696 82.9111 24.1641 82.9111 24.7752C82.9111 25.3686 82.7499 25.8719 82.427 26.2853C82.1069 26.6967 81.6855 27.042 81.1931 27.2967C80.6932 27.5573 80.1359 27.746 79.5217 27.8629C78.9072 27.9797 78.3086 28.0381 77.7254 28.0381C75.8302 28.0381 74.3774 27.6741 73.3674 26.9461C72.3573 26.218 71.8524 25.0719 71.8524 23.5078H71.2274C71.2274 25.2517 71.7742 26.5281 72.8675 27.3372C73.961 28.1461 75.5802 28.5506 77.7254 28.5506C78.4126 28.5506 79.1051 28.4831 79.8029 28.3483C80.5004 28.2134 81.1254 27.9933 81.6772 27.6876C82.2243 27.3862 82.6839 26.9803 83.0204 26.5012C83.3641 26.0157 83.5361 25.4225 83.5361 24.7213C83.5361 24.0561 83.3849 23.5169 83.0831 23.1033C82.781 22.69 82.3854 22.3483 81.8958 22.0787C81.4064 21.809 80.8546 21.5978 80.2402 21.445C79.6223 21.2913 79.0026 21.1429 78.3813 20.9999C77.6167 20.8267 76.8513 20.656 76.0852 20.4877C75.4293 20.3438 74.8201 20.173 74.2578 19.9752C73.7163 19.7775 73.2841 19.4944 72.9612 19.1259C72.6384 18.7573 72.4771 18.2315 72.4771 17.5483C72.4771 17.4225 72.5187 17.1977 72.602 16.8742C72.6852 16.5505 72.8832 16.2224 73.1956 15.8898C73.508 15.5574 73.9869 15.2607 74.6326 15C75.2782 14.7394 76.1634 14.6089 77.288 14.6089C78.0586 14.6089 78.7614 14.681 79.3966 14.8247C80.0319 14.9686 80.5786 15.1977 81.0367 15.5124C81.4949 15.827 81.8489 16.2269 82.0989 16.7123C82.3488 17.1979 82.4739 17.7911 82.4739 18.4922ZM96.9378 18.4922H97.5626C97.5626 16.946 97.0421 15.8225 96.0007 15.1213C94.9593 14.4202 93.5431 14.0696 91.7519 14.0696C90.7524 14.0696 89.9088 14.1776 89.2216 14.3933C88.5343 14.6089 87.9719 14.8876 87.5347 15.2291C87.0973 15.5706 86.7849 15.9482 86.5974 16.3618C86.4099 16.7753 86.3163 17.1709 86.3163 17.5483C86.3163 18.3033 86.4725 18.9056 86.7851 19.355C87.0973 19.8045 87.5868 20.1551 88.2532 20.4067C88.7114 20.5864 89.2319 20.7482 89.8151 20.8923C90.3982 21.036 91.0751 21.1888 91.8457 21.3505C92.5331 21.4945 93.2099 21.6383 93.8763 21.782C94.5429 21.9259 95.1311 22.1191 95.6414 22.3617C96.1516 22.6045 96.5683 22.9146 96.8909 23.2922C97.2138 23.6696 97.3752 24.1641 97.3752 24.7752C97.3752 25.3686 97.2138 25.8719 96.8909 26.2853C96.5709 26.6967 96.1496 27.042 95.6572 27.2967C95.1571 27.5573 94.6001 27.746 93.9856 27.8629C93.3714 27.9797 92.7725 28.0381 92.1894 28.0381C90.2941 28.0381 88.8416 27.6741 87.8315 26.9461C86.8212 26.218 86.3163 25.0719 86.3163 23.5078H85.6916C85.6916 25.2517 86.2381 26.5281 87.3316 27.3372C88.4249 28.1461 90.0442 28.5506 92.1894 28.5506C92.8767 28.5506 93.5692 28.4831 94.2669 28.3483C94.9644 28.2134 95.5893 27.9933 96.1413 27.6876C96.6884 27.3862 97.148 26.9803 97.4846 26.5012C97.8282 26.0157 98 25.4225 98 24.7213C98 24.0561 97.8491 23.5169 97.547 23.1033C97.2451 22.69 96.8495 22.3483 96.3599 22.0787C95.8706 21.809 95.3186 21.5978 94.7043 21.445C94.0864 21.2913 93.4668 21.1429 92.8454 20.9999C92.0808 20.8267 91.3154 20.656 90.5493 20.4877C89.8932 20.3438 89.2841 20.173 88.7217 19.9752C88.1802 19.7775 87.7481 19.4944 87.4254 19.1259C87.1025 18.7573 86.9411 18.2315 86.9411 17.5483C86.9411 17.4225 86.9827 17.1977 87.0661 16.8742C87.1494 16.5505 87.3474 16.2224 87.6596 15.8898C87.9719 15.5574 88.451 15.2607 89.0966 15C89.7423 14.7394 90.6273 14.6089 91.7521 14.6089C92.5228 14.6089 93.2255 14.681 93.8608 14.8247C94.496 14.9686 95.0426 15.1977 95.5008 15.5124C95.9591 15.827 96.3131 16.2269 96.563 16.7123C96.8129 17.1979 96.9378 17.7911 96.9378 18.4922Z" fill="#2F2F2B"/>
</svg>
