<svg width="25" height="25" viewBox="0 0 25 25" fill="none" xmlns="http://www.w3.org/2000/svg">
<path d="M13 12.5C13 11.0503 14.1753 9.875 15.625 9.875C17.0747 9.875 18.25 11.0503 18.25 12.5C18.25 13.9497 17.0747 15.125 15.625 15.125C14.1753 15.125 13 13.9497 13 12.5Z" stroke="white"/>
<path d="M6.75 18.75C6.75 17.3003 7.92525 16.125 9.375 16.125H12V18.75C12 20.1997 10.8247 21.375 9.375 21.375C7.92525 21.375 6.75 20.1997 6.75 18.75Z" stroke="white"/>
<path d="M15.625 8.875H13V3.625H15.625C17.0747 3.625 18.25 4.80025 18.25 6.25C18.25 7.69975 17.0747 8.875 15.625 8.875Z" stroke="white"/>
<path d="M9.375 8.875C7.92525 8.875 6.75 7.69975 6.75 6.25C6.75 4.80025 7.92525 3.625 9.375 3.625H12V8.875H9.375Z" stroke="white"/>
<path d="M9.375 15.125C7.92525 15.125 6.75 13.9497 6.75 12.5C6.75 11.0503 7.92525 9.875 9.375 9.875H12V15.125H9.375Z" stroke="white"/>
</svg>
