<svg width="26" height="25" viewBox="0 0 26 25" fill="none" xmlns="http://www.w3.org/2000/svg">
<path d="M13.0001 0C6.09739 0 0.5 5.73799 0.5 12.8165C0.5 18.4791 4.08166 23.2833 9.04833 24.978C9.67305 25.0966 9.9024 24.6999 9.9024 24.3614C9.9024 24.0558 9.89081 23.0462 9.88543 21.9753C6.40789 22.7506 5.67408 20.4631 5.67408 20.4631C5.10546 18.9817 4.28617 18.5878 4.28617 18.5878C3.15204 17.7923 4.37166 17.8087 4.37166 17.8087C5.62689 17.8991 6.28783 19.1294 6.28783 19.1294C7.40271 21.0888 9.21207 20.5223 9.92538 20.1948C10.0376 19.3665 10.3615 18.8011 10.719 18.481C7.94256 18.1569 5.02391 17.058 5.02391 12.1471C5.02391 10.7478 5.51221 9.6045 6.31184 8.70695C6.18205 8.38414 5.75419 7.08059 6.43293 5.31522C6.43293 5.31522 7.48261 4.97076 9.87135 6.62896C10.8685 6.34499 11.9378 6.20258 13.0001 6.19769C14.0624 6.20258 15.1326 6.34499 16.1315 6.62896C18.5174 4.97076 19.5656 5.31522 19.5656 5.31522C20.246 7.08059 19.8179 8.38414 19.6882 8.70695C20.4896 9.6045 20.9746 10.7478 20.9746 12.1471C20.9746 17.0697 18.0504 18.1535 15.2669 18.4708C15.7153 18.8686 16.1148 19.6485 16.1148 20.8443C16.1148 22.5591 16.1003 23.9393 16.1003 24.3614C16.1003 24.7025 16.3253 25.1021 16.9589 24.9763C21.9229 23.2797 25.5 18.4772 25.5 12.8165C25.5 5.73799 19.9034 0 13.0001 0Z" fill="white"/>
<path d="M5.27131 18.3138C5.24383 18.3769 5.14631 18.3958 5.05747 18.3525C4.96697 18.3111 4.91615 18.2251 4.94548 18.1619C4.97234 18.0969 5.07007 18.0789 5.16036 18.1224C5.25106 18.1638 5.30272 18.2506 5.27131 18.3138Z" fill="#161514"/>
<path d="M5.77667 18.887C5.71717 18.9431 5.60085 18.9171 5.52192 18.8284C5.44031 18.7399 5.42502 18.6216 5.48535 18.5647C5.54672 18.5086 5.65953 18.5348 5.74134 18.6233C5.82295 18.7128 5.83886 18.8303 5.77667 18.887Z" fill="#161514"/>
<path d="M6.26859 19.6179C6.19214 19.6719 6.06714 19.6213 5.98987 19.5084C5.91342 19.3956 5.91342 19.2603 5.99152 19.206C6.069 19.1518 6.19214 19.2006 6.27045 19.3126C6.34669 19.4273 6.34669 19.5626 6.26859 19.6179Z" fill="#161514"/>
<path d="M6.94251 20.3239C6.87412 20.4006 6.72846 20.38 6.62185 20.2753C6.51276 20.173 6.48239 20.0278 6.55098 19.9511C6.6202 19.8742 6.76669 19.8958 6.87412 19.9996C6.98239 20.1017 7.01545 20.248 6.94251 20.3239Z" fill="#161514"/>
<path d="M7.87231 20.734C7.84214 20.8334 7.70185 20.8785 7.56053 20.8363C7.41942 20.7928 7.32706 20.6764 7.35557 20.5759C7.38491 20.4759 7.52582 20.4288 7.66818 20.474C7.80908 20.5173 7.90165 20.6329 7.87231 20.734Z" fill="#161514"/>
<path d="M8.8934 20.81C8.89691 20.9146 8.77707 21.0014 8.62873 21.0033C8.47955 21.0067 8.35889 20.922 8.35724 20.819C8.35724 20.7133 8.47439 20.6274 8.62356 20.6248C8.77191 20.6219 8.8934 20.7059 8.8934 20.81Z" fill="#161514"/>
<path d="M9.84358 20.6453C9.86135 20.7475 9.75825 20.8523 9.61093 20.8803C9.4661 20.9072 9.33201 20.8441 9.31362 20.7428C9.29564 20.6382 9.4006 20.5333 9.54523 20.5062C9.69275 20.4802 9.82478 20.5415 9.84358 20.6453Z" fill="#161514"/>
</svg>
