<svg width="24" height="24" viewBox="0 0 24 24" fill="none" xmlns="http://www.w3.org/2000/svg">
<path d="M12.0001 0C5.3735 0 0 5.50847 0 12.3038C0 17.74 3.43839 22.3519 8.2064 23.9789C8.80613 24.0927 9.02631 23.7119 9.02631 23.387C9.02631 23.0936 9.01518 22.1244 9.01001 21.0963C5.67157 21.8405 4.96712 19.6446 4.96712 19.6446C4.42125 18.2224 3.63473 17.8443 3.63473 17.8443C2.54596 17.0806 3.7168 17.0963 3.7168 17.0963C4.92181 17.1831 5.55632 18.3642 5.55632 18.3642C6.6266 20.2452 8.36359 19.7014 9.04836 19.387C9.15607 18.5918 9.46706 18.049 9.81024 17.7418C7.14486 17.4307 4.34295 16.3757 4.34295 11.6612C4.34295 10.3179 4.81172 9.22032 5.57937 8.35868C5.45477 8.04878 5.04402 6.79737 5.69562 5.10261C5.69562 5.10261 6.70331 4.77193 8.9965 6.3638C9.95372 6.09119 10.9803 5.95447 12.0001 5.94979C13.0199 5.95447 14.0473 6.09119 15.0063 6.3638C17.2967 4.77193 18.303 5.10261 18.303 5.10261C18.9562 6.79737 18.5452 8.04878 18.4206 8.35868C19.1901 9.22032 19.6557 10.3179 19.6557 11.6612C19.6557 16.3869 16.8484 17.4274 14.1762 17.732C14.6067 18.1138 14.9902 18.8626 14.9902 20.0105C14.9902 21.6568 14.9763 22.9817 14.9763 23.387C14.9763 23.7144 15.1923 24.098 15.8006 23.9772C20.566 22.3485 24 17.7381 24 12.3038C24 5.50847 18.6273 0 12.0001 0Z" fill="#828276"/>
<path d="M4.58042 17.5813C4.55404 17.6419 4.46042 17.66 4.37514 17.6185C4.28826 17.5787 4.23947 17.4962 4.26763 17.4355C4.29342 17.3731 4.38723 17.3558 4.47391 17.3975C4.56099 17.4373 4.61057 17.5206 4.58042 17.5813Z" fill="#828276"/>
<path d="M5.06565 18.1315C5.00852 18.1854 4.89685 18.1603 4.82108 18.0752C4.74274 17.9903 4.72806 17.8767 4.78598 17.822C4.84489 17.7682 4.95318 17.7934 5.03173 17.8783C5.11008 17.9643 5.12535 18.077 5.06565 18.1315Z" fill="#828276"/>
<path d="M5.53787 18.8332C5.46448 18.8851 5.34448 18.8364 5.2703 18.7281C5.19691 18.6198 5.19691 18.4899 5.27189 18.4378C5.34627 18.3858 5.46448 18.4326 5.53965 18.5401C5.61284 18.6502 5.61284 18.7802 5.53787 18.8332Z" fill="#828276"/>
<path d="M6.18488 19.511C6.11923 19.5846 5.97939 19.5648 5.87705 19.4644C5.77232 19.3661 5.74316 19.2267 5.80901 19.1531C5.87546 19.0792 6.01609 19.1 6.11923 19.1997C6.22316 19.2977 6.2549 19.4381 6.18488 19.511Z" fill="#828276"/>
<path d="M7.07744 19.9045C7.04849 19.9999 6.91381 20.0433 6.77814 20.0028C6.64267 19.961 6.55401 19.8492 6.58138 19.7528C6.60954 19.6568 6.74482 19.6116 6.88148 19.655C7.01675 19.6965 7.10561 19.8075 7.07744 19.9045Z" fill="#828276"/>
<path d="M8.05768 19.9776C8.06105 20.0781 7.94601 20.1614 7.8036 20.1632C7.66039 20.1664 7.54456 20.0851 7.54297 19.9863C7.54297 19.8848 7.65543 19.8023 7.79864 19.7999C7.94105 19.7971 8.05768 19.8777 8.05768 19.9776Z" fill="#828276"/>
<path d="M8.96979 19.8195C8.98685 19.9175 8.88788 20.0182 8.74645 20.045C8.60741 20.0708 8.47868 20.0103 8.46103 19.9131C8.44378 19.8126 8.54454 19.7119 8.68338 19.6859C8.825 19.6609 8.95174 19.7198 8.96979 19.8195Z" fill="#828276"/>
</svg>
