<svg width="24" height="24" viewBox="0 0 24 24" fill="none" xmlns="http://www.w3.org/2000/svg">
<path d="M1.63641 21.3614H5.45456V12.0887L0 7.9978V19.7251C0 20.6292 0.732281 21.3615 1.63641 21.3615V21.3614Z" fill="#828276"/>
<path d="M18.5454 21.3614H22.3636C23.2677 21.3614 24 20.6292 24 19.7251V7.9978L18.5454 12.0887V21.3614Z" fill="#828276"/>
<path d="M18.5454 4.99769V12.0886L24 7.99769V5.81589C24 3.79361 21.6914 2.63861 20.0727 3.85225L18.5454 4.99769Z" fill="#828276"/>
<path fill-rule="evenodd" clip-rule="evenodd" d="M5.45459 12.0887V4.9978L12 9.90693L18.5455 4.9978V12.0887L12 16.9978L5.45459 12.0887Z" fill="#828276"/>
<path d="M0 5.81589V7.99769L5.45456 12.0886V4.99769L3.92728 3.85226C2.30859 2.63862 0 3.79362 0 5.8158V5.81589Z" fill="#828276"/>
</svg>
