<svg width="26" height="25" viewBox="0 0 26 25" fill="none" xmlns="http://www.w3.org/2000/svg">
<g clip-path="url(#clip0)">
<path fill-rule="evenodd" clip-rule="evenodd" d="M8.5 0C4.08172 0 0.5 3.58172 0.5 8V17C0.5 21.4183 4.08172 25 8.5 25H17.5C21.9183 25 25.5 21.4183 25.5 17V8C25.5 3.58172 21.9183 0 17.5 0H8.5ZM14.675 11.825V19.699H16.823V11.851C16.823 7.52899 10.583 9.98699 10.583 9.98699V5.29999L8.354 5.31399C8.354 5.31399 8.354 12.63 8.366 12.596C15.187 9.94099 14.675 11.825 14.675 11.825ZM13.581 8.13699H15.945C17.228 6.47599 17.647 5.31399 17.646 5.31399H15.202C15.202 5.31399 14.432 7.09699 13.581 8.13699ZM8.394 15.202V19.686L10.636 17.444L8.394 15.202Z" fill="white"/>
</g>
<defs>
<clipPath id="clip0">
<rect width="25" height="25" fill="white" transform="translate(0.5)"/>
</clipPath>
</defs>
</svg>
