<svg width="25" height="25" viewBox="0 0 25 25" fill="none" xmlns="http://www.w3.org/2000/svg">
<path fill-rule="evenodd" clip-rule="evenodd" d="M25 0L22.7225 22.4974L12.4847 25L2.2752 22.5009L0 0H25ZM8.09246 7.8696H12.5V5H4.6875L4.76203 5.76985L5.52784 13.6777H12.5V10.8081H8.37723L8.09246 7.8696ZM8.79466 15.1126H5.66705L6.10351 19.6183L12.4857 21.25L12.5 21.2464V21.25L18.8936 19.6195L18.9405 19.1346L19.6735 11.5792L19.7495 10.8086H12.5001V13.6784H16.3405L15.9784 17.4004L12.5 18.2643V18.2608L12.4863 18.2641L9.0165 17.4012L8.79466 15.1126ZM12.5001 7.86984V7.86283V5H20.3125L20.238 5.76992L20.0958 7.22483L20.0333 7.86984H12.5001Z" fill="#F9FAF7"/>
</svg>
