<svg width="25" height="25" viewBox="0 0 25 25" fill="none" xmlns="http://www.w3.org/2000/svg">
<rect width="25" height="25" rx="8" fill="white"/>
<path d="M15.9375 20.7716L17.5481 19.7059C17.6743 20.1024 18.4736 21.0442 19.4832 21.0442C20.4928 21.0442 20.9615 20.4928 20.9615 20.1272C20.9615 19.131 19.9306 18.7797 19.4354 18.611C19.3547 18.5835 19.2882 18.5609 19.2428 18.5411C19.2195 18.5309 19.1842 18.5174 19.139 18.5001C18.5883 18.2897 16.5565 17.5135 16.5565 15.2634C16.5565 12.785 18.9483 12.5 19.4892 12.5C19.843 12.5 21.5445 12.5434 22.3918 14.1357L20.8293 15.2262C20.4868 14.5323 19.9176 14.303 19.5673 14.303C18.7019 14.303 18.5216 14.9375 18.5216 15.2262C18.5216 16.0365 19.4618 16.3997 20.2557 16.7064C20.4634 16.7866 20.6611 16.863 20.8293 16.9425C21.6947 17.3514 22.9688 18.0206 22.9688 20.1272C22.9688 21.1824 22.0837 22.8906 19.8558 22.8906C16.863 22.8906 16.0697 21.0938 15.9375 20.7716Z" fill="#3E3E3E"/>
<path d="M8.125 20.9832L9.80365 19.9181C9.93519 20.3144 10.4463 21.0452 11.1879 21.0452C11.9295 21.0452 12.3091 20.2834 12.3091 19.9181V12.7344H14.3736V19.9181C14.407 20.9089 13.8575 22.8906 11.4322 22.8906C9.20234 22.8906 8.27533 21.5654 8.125 20.9832Z" fill="#3E3E3E"/>
</svg>
