<svg width="24" height="24" viewBox="0 0 24 24" fill="none" xmlns="http://www.w3.org/2000/svg">
<g clip-path="url(#clip0)">
<path d="M12 -0.000244141C5.37254 -0.000244141 0 5.37228 0 11.9997C0 18.6272 5.37254 23.9997 12 23.9997C18.6275 23.9997 24.0001 18.6272 24.0001 11.9997C24 5.37228 18.6274 -0.000244141 12 -0.000244141ZM8.79838 17.8012H6.16366V9.28915H8.79838V17.8012ZM7.46846 8.17444C6.60799 8.17444 5.91043 7.47119 5.91043 6.60383C5.91043 5.73637 6.60809 5.03317 7.46846 5.03317C8.32884 5.03317 9.0264 5.73637 9.0264 6.60383C9.02645 7.47124 8.32888 8.17444 7.46846 8.17444V8.17444ZM18.672 17.8012H16.05V13.3331C16.05 12.1076 15.5846 11.4235 14.6155 11.4235C13.5609 11.4235 13.01 12.136 13.01 13.3331V17.8012H10.483V9.28915H13.01V10.4356C13.01 10.4356 13.7701 9.02951 15.575 9.02951C17.38 9.02951 18.672 10.1316 18.672 12.4115L18.672 17.8012V17.8012Z" fill="#828276"/>
</g>
<defs>
<clipPath id="clip0">
<path d="M0 12C0 5.37258 5.37258 0 12 0V0C18.6274 0 24 5.37258 24 12V12C24 18.6274 18.6274 24 12 24V24C5.37258 24 0 18.6274 0 12V12Z" fill="white"/>
</clipPath>
</defs>
</svg>
