<svg width="100" height="40" viewBox="0 0 100 40" fill="none" xmlns="http://www.w3.org/2000/svg">
<g clip-path="url(#clip0)">
<path fill-rule="evenodd" clip-rule="evenodd" d="M-2.28882e-05 0H100V40H-2.28882e-05V0ZM93.108 16.5658C93.0182 16.591 92.928 16.869 92.928 17.0205C92.91 18.0318 92.892 20.7114 92.892 22.5314C92.892 22.5821 92.9459 22.6832 93 22.6832C93.2703 22.7084 93.9192 22.7336 94.478 22.7336C95.253 22.7336 95.7036 22.5821 95.9561 22.4306C96.6047 21.9754 96.9112 20.9895 96.9112 19.9022C96.9112 17.4506 95.6856 16.5151 93.8651 16.5151C93.7389 16.4899 93.3787 16.4899 93.108 16.5658ZM97.7584 27.8654C97.7584 25.3628 96.4426 23.9723 94.0635 23.9723C94.0457 23.9723 94.0104 23.9716 93.963 23.9707C93.7219 23.9661 93.1686 23.9554 93.018 23.9975C92.9639 24.023 92.892 24.0737 92.892 24.1495C92.892 24.4903 92.8914 24.8694 92.8907 25.2676V25.2731C92.8877 26.9706 92.8842 29.0131 92.928 29.913C92.9639 30.3932 93.2164 31.0759 93.5229 31.278C93.8471 31.5309 94.5862 31.5813 95.0909 31.5813C96.5147 31.5813 97.7584 30.4691 97.7584 27.8654ZM89.4315 15.1756C89.4792 15.1756 89.5521 15.1809 89.6594 15.1887C89.9573 15.2103 90.5197 15.2512 91.5401 15.2512C92.2025 15.2512 92.7964 15.2384 93.3862 15.2257L93.3863 15.2257L93.3864 15.2257C93.9679 15.2132 94.5455 15.2008 95.1809 15.2008C96.7489 15.2008 98.9118 15.9842 98.9118 19.2706C98.9118 20.8884 98.1006 22.1778 97.0373 22.8097C96.9834 22.8349 96.9834 22.8853 97.0373 22.9106C98.5512 23.4417 99.8852 24.756 99.8852 27.2332C99.8852 29.6602 98.8037 31.2022 97.2356 32.1628C96.2803 32.7441 95.0909 32.9463 93.8832 32.9463C93.5455 32.9463 92.9987 32.9258 92.374 32.9025L92.3737 32.9025L92.3734 32.9025C91.2977 32.8623 89.9914 32.8134 89.125 32.8455C88.9809 32.7693 89.2512 31.8593 89.3772 31.7078C89.7018 31.6824 89.9539 31.6572 90.2965 31.5054C90.7832 31.3287 90.8371 31.1263 90.9092 30.09C90.9453 29.2052 90.9454 26.0703 90.9454 23.846C90.9454 22.6796 90.948 21.6565 90.9502 20.7811V20.7805C90.9539 19.3605 90.9566 18.3288 90.9454 17.7034C90.9274 16.92 90.7291 16.6668 90.3326 16.5151C90.026 16.4395 89.5215 16.3381 89.1069 16.2625C89.0166 16.136 89.3231 15.2764 89.4315 15.1756ZM79.0315 30.8989C79.4643 31.3788 80.3114 31.581 81.0684 31.581C82.0416 31.581 83.0149 31.3287 83.9522 30.1401C84.9075 28.9272 85.5743 27.0565 85.5743 24.0737C85.5743 21.2168 84.7993 18.8912 83.2131 17.5264C82.312 16.7425 81.1584 16.4143 79.8246 16.4143C79.4282 16.4143 79.0496 16.4395 78.8155 16.591C78.7612 16.6416 78.6352 16.869 78.6352 16.9953C78.5991 17.501 78.5991 21.3938 78.5991 23.6691C78.5991 26.0199 78.5991 29.3063 78.6352 29.6854C78.6352 30.0648 78.7612 30.6461 79.0317 30.8989H79.0315ZM74.9401 15.1753C75.0854 15.1753 75.4059 15.189 75.775 15.2047C76.2757 15.226 76.8659 15.2512 77.2291 15.2512C77.7075 15.2512 78.1282 15.2378 78.6152 15.2222L78.6153 15.2222C79.2846 15.2009 80.0792 15.1756 81.3205 15.1756C83.1229 15.1756 84.6369 15.8579 85.7184 17.147C87.034 18.7397 87.7192 20.9391 87.7192 23.6184C87.7192 27.4356 86.4754 29.635 85.2317 30.8989C83.9883 32.188 82.3661 32.9463 80.059 32.9463C79.2607 32.9463 78.0877 32.9249 76.8836 32.9029C76.2391 32.8912 75.5858 32.8793 74.9762 32.8704H74.9582C74.8682 32.643 75.1024 31.7582 75.2465 31.733C75.7153 31.6572 75.8414 31.6317 76.0758 31.5057C76.4541 31.3032 76.5264 31.0252 76.5805 30.09C76.6234 28.7036 76.6208 27.0939 76.6179 25.2985C76.6172 24.8349 76.6164 24.3589 76.6164 23.8712C76.6164 23.4835 76.6174 23.011 76.6184 22.5V22.499V22.497C76.6218 20.7768 76.6261 18.6224 76.5983 17.8042C76.5444 16.9197 76.2741 16.692 75.7332 16.5403L75.727 16.5385C75.4574 16.4631 75.0985 16.3628 74.5979 16.2877C74.5256 16.1105 74.85 15.3271 74.9401 15.1756V15.1753ZM51.96 31.4549C52.3564 31.7077 52.6809 31.8085 53.1314 31.8844C53.2035 32.0868 53.1674 32.8199 53.0775 32.9716C52.9803 32.9716 52.834 32.963 52.64 32.9516C52.2582 32.9291 51.6915 32.8958 50.9506 32.8958C50.439 32.8958 50.0203 32.9202 49.6583 32.9414C49.3826 32.9575 49.1398 32.9716 48.9139 32.9716C48.8238 32.7947 48.7877 32.011 48.9139 31.8337C49.2924 31.7836 49.6168 31.6822 49.7432 31.6064C50.0133 31.4801 50.0674 31.2272 50.0674 30.2162C50.0674 29.8 50.0692 29.3701 50.0709 28.9412C50.0771 27.4421 50.0833 25.955 50.0133 25.1098C49.9592 24.6296 49.833 23.9722 49.4365 23.5175C49.148 23.1888 48.7697 22.9359 48.193 22.9359C47.5982 22.9359 46.9312 23.2898 46.5166 23.7952C46.4086 23.947 46.3006 24.1998 46.3006 24.7307C46.3006 26.6518 46.3006 29.4829 46.3363 30.8229C46.3545 31.3538 46.4447 31.5809 46.7691 31.6822C47.0033 31.7836 47.2557 31.834 47.5982 31.8592C47.6703 32.0362 47.6342 32.7947 47.508 32.9968C47.4049 32.9968 47.2671 32.9882 47.0842 32.9768C46.7238 32.9544 46.1885 32.921 45.3994 32.921C44.8141 32.921 44.1465 32.9557 43.7144 32.9781C43.5075 32.9889 43.3546 32.9968 43.2904 32.9968C43.1822 32.8199 43.1822 32.011 43.2904 31.8592C43.529 31.8197 43.702 31.7652 43.8861 31.7071C43.9384 31.6906 43.9916 31.6738 44.0475 31.657L44.0113 31.6822C44.3359 31.5812 44.4621 31.3538 44.4801 30.7218C44.534 29.1292 44.534 26.222 44.516 24.3264C44.516 24.3077 44.5161 24.2887 44.5163 24.2695C44.5176 24.0537 44.5192 23.8041 44.3537 23.6185C44.1016 23.3909 43.7769 23.1633 43.2906 22.9611H43.2726C42.8219 22.759 42.9301 22.1777 43.3625 22.0508C43.9574 21.9752 45.5795 21.4444 46.1562 21.04C46.1562 21.04 46.3006 21.2167 46.2824 21.5706C46.2772 21.6807 46.2705 21.8056 46.2635 21.9342C46.2465 22.2492 46.2283 22.5868 46.2283 22.7842C46.2103 23.0625 46.3545 22.8852 46.3725 22.86C47.2557 21.7983 48.3191 21.04 49.1121 21.04C50.0135 21.04 50.7162 21.5958 51.2029 22.5568C51.6176 23.3909 51.7797 24.579 51.7797 25.9442C51.7797 27.6377 51.7797 30.1655 51.8156 31.0503C51.8156 31.1516 51.9059 31.4042 51.96 31.4549ZM56.574 24.8822C56.574 23.2646 57.1689 22.2284 58.124 22.2284V22.2281C59.3496 22.2281 60.0887 23.492 60.0887 25.59C60.0887 26.5507 59.8543 27.461 59.5117 27.9157C59.2957 28.2696 58.8269 28.4214 58.5746 28.4214C57.0967 28.4214 56.574 26.5255 56.574 24.8822ZM57.2228 33.6795C57.385 33.5529 57.6375 33.4012 57.9978 33.4012C59.0975 33.4012 60.0166 33.5529 60.5213 33.8564C61.224 34.2101 61.5666 34.842 61.5666 35.803C61.5666 37.1677 60.7555 38.5582 58.917 38.5582C57.9978 38.5582 57.2769 38.2547 56.7543 37.6227C56.3217 37.117 56.1234 36.5358 56.1234 35.803C56.1234 35.019 56.4658 34.3616 57.2228 33.6795ZM55.5467 38.9121C56.2314 39.6451 57.0246 39.9739 58.124 39.9739C58.9711 39.9739 59.7463 39.721 60.5213 39.2405C62.1074 38.1539 63.0625 36.4097 63.0625 34.5388C63.0625 33.3001 62.5398 32.2635 61.7107 31.834C61.116 31.556 59.8363 31.4294 58.809 31.3286C58.7208 31.3162 58.637 31.3098 58.5554 31.3036C58.4701 31.2971 58.3872 31.2908 58.3043 31.2779C57.5293 31.202 57.3672 30.7468 57.3672 30.3677C57.3672 29.9381 57.7275 29.6853 57.8717 29.6349H57.8896C57.8953 29.6349 57.9113 29.6324 57.9334 29.6291C57.9825 29.6215 58.0619 29.6094 58.124 29.6094C58.2865 29.5842 58.3584 29.5842 58.3764 29.5842C59.1695 29.4829 59.8723 29.0785 60.4851 28.4466C61.116 27.7639 61.7107 26.8542 61.7107 24.7814C61.7107 24.6042 61.6387 23.9218 61.6027 23.6944L61.5846 23.6438C61.5819 23.6324 61.5792 23.6216 61.5766 23.6112C61.562 23.5527 61.5513 23.5099 61.5666 23.4668L61.6385 23.4161C61.6385 23.4161 61.7828 23.4668 62.1072 23.5175H62.1975C62.5219 23.5175 62.8463 23.315 62.9904 23.037C63.1707 22.6831 63.2428 22.2029 63.2248 21.8742C63.2068 21.5457 63.1707 21.4192 63.1525 21.3688C62.9004 21.7224 62.5939 22.0256 61.8912 22.0256C61.4225 22.0256 61.0799 21.95 60.7193 21.7731C60.6855 21.7564 60.6522 21.7399 60.6193 21.7236C60.004 21.4193 59.541 21.1902 58.7369 21.1663H58.6828C57.8537 21.1663 56.592 21.849 56.0873 22.405C55.3484 23.1381 54.934 24.3009 54.934 25.59C54.934 27.5618 55.5648 28.8764 56.8262 29.4579C56.8623 29.4829 56.8984 29.5335 56.8984 29.5842C56.8984 29.6349 56.8984 29.6853 56.8623 29.7357C56.6641 29.9633 56.3396 30.2414 56.0332 30.4945C55.9743 30.547 55.917 30.5973 55.8623 30.6454C55.7328 30.7591 55.6174 30.8605 55.5287 30.9492C55.3802 31.0881 55.3978 31.2268 55.4155 31.3656C55.4172 31.3785 55.4188 31.3913 55.4203 31.4042V31.4549C55.4926 31.8592 55.7449 32.5925 56.592 33.0475C56.6279 33.0724 56.6641 33.1231 56.6641 33.1735C56.6641 33.2245 56.6461 33.2497 56.6101 33.2749C55.5828 34.2608 55.15 34.842 54.9519 35.1456C54.6275 35.651 54.5914 36.2073 54.5914 36.4095C54.5914 37.1425 54.8797 38.2043 55.5467 38.9121ZM67.4242 22.7335C67.6766 22.4806 68.0191 22.3546 68.3975 22.3546L68.3977 22.3544C70.1098 22.3544 71.2814 24.5537 71.2814 27.8398C71.2814 29.5335 71.0109 30.7468 70.4883 31.3538C70.1459 31.7581 69.7494 31.9606 69.2447 31.9606C67.5504 31.9606 66.3609 29.6349 66.3609 26.3231C66.3609 24.5537 66.7215 23.3402 67.4242 22.7335ZM64.5586 27.0564C64.5586 30.0139 65.658 33.1737 68.7219 33.1738C69.5691 33.1738 70.5965 32.6429 71.1912 32.0868C72.435 30.9744 73.0838 29.1544 73.0838 26.8542C73.0838 23.4668 71.4436 21.1159 69.1006 21.1159C68.1994 21.1159 67.19 21.5202 66.3428 22.2533C65.1533 23.3909 64.5586 24.9835 64.5586 27.0564ZM35.6303 22.7335C35.8828 22.4806 36.2252 22.3544 36.6037 22.3544C38.334 22.3544 39.4875 24.5537 39.4875 27.8398C39.4875 29.5335 39.217 30.7468 38.6945 31.3538C38.3519 31.7581 37.9555 31.9606 37.4508 31.9606C35.7564 31.9606 34.567 29.6349 34.567 26.3231C34.567 24.5537 34.9275 23.3402 35.6303 22.7335ZM32.7646 27.0564C32.7646 30.014 33.8641 33.1738 36.9281 33.1738C37.7932 33.1738 38.8205 32.6429 39.3973 32.0868C40.641 30.9744 41.2898 29.1544 41.2898 26.8542C41.2898 23.4668 39.6498 21.1159 37.3066 21.1159C36.4055 21.1159 35.3961 21.5202 34.5488 22.2533C33.3594 23.3909 32.7646 24.9835 32.7646 27.0564ZM16.2728 32.3397C16.2547 32.6177 16.2908 32.8454 16.3269 32.921C16.5432 32.921 16.7414 32.921 16.9937 32.9716C17.3543 32.9462 17.8049 32.921 18.4357 32.921C18.9764 32.921 19.4631 32.9462 19.8414 32.9716C19.9783 32.9716 20.1045 32.979 20.2201 32.9858C20.3178 32.9916 20.4079 32.9968 20.4904 32.9968C20.5625 32.7947 20.5807 32.1879 20.5443 32.0362L20.2201 31.9606C20.0767 31.9403 19.9562 31.9041 19.8675 31.8775C19.8447 31.8706 19.8239 31.8644 19.8055 31.8592C19.3908 31.7329 19.3189 31.3787 19.3008 31.0758C19.2828 30.0899 19.2828 27.8146 19.2828 25.9946V24.5031C19.2828 24.2754 19.3549 24.0229 19.4451 23.9221C20.0217 23.315 20.7248 22.9359 21.2834 22.9359C22.2389 22.9359 22.8336 23.669 23.0498 25.135C23.176 26.0453 23.1219 29.6601 23.0678 30.924C23.0498 31.4801 22.9418 31.7077 22.6351 31.834L22.6264 31.8365C22.4492 31.886 22.2711 31.9359 22.0586 31.9858C21.9815 31.9858 21.9176 32.0042 21.8445 32.0252C21.8321 32.0288 21.8193 32.0325 21.8062 32.0362C21.7701 32.0868 21.734 32.2638 21.734 32.4912C21.734 32.7695 21.7701 32.9462 21.7883 32.9968C21.8651 32.9968 21.965 32.9922 22.0795 32.987C22.2332 32.9799 22.4132 32.9716 22.5992 32.9716C22.8164 32.9716 23.0552 32.964 23.2713 32.9571C23.4497 32.9514 23.6125 32.9462 23.7348 32.9462C24.6539 32.9462 25.2848 32.9716 25.8975 32.9968C25.9154 32.9714 25.9516 32.8958 25.9697 32.744C26.0238 32.466 26.0238 32.1375 25.9877 32.0362C25.7353 31.9606 25.573 31.9099 25.4109 31.8592C25.3806 31.8507 25.3524 31.8423 25.3242 31.8338C25.2684 31.817 25.2125 31.8002 25.1406 31.7836C24.9424 31.6822 24.708 31.556 24.708 30.9996C24.6961 30.4721 24.6998 29.8369 24.7037 29.1432C24.7058 28.7735 24.708 28.3871 24.708 27.9916V26.3485C24.708 25.4133 24.708 24.8063 24.6357 24.2757V24.2502C24.6357 24.1744 24.6721 24.0481 24.708 23.9974C25.393 23.2646 26.0957 23.0118 26.5463 23.0118C27.7359 23.0118 28.2767 24.1998 28.3848 25.2109C28.4739 26.0234 28.4408 28.9474 28.4264 30.2198C28.4233 30.4914 28.4211 30.6878 28.4211 30.7722C28.4029 31.4294 28.3129 31.657 27.9523 31.8088C27.9152 31.823 27.8793 31.8371 27.8435 31.8513C27.6875 31.9129 27.5311 31.9747 27.2672 32.0362C27.2133 32.1879 27.2314 32.7947 27.2672 32.9968C27.8262 32.9462 28.4029 32.921 29.5203 32.921C29.9772 32.9214 30.434 32.9383 30.8902 32.9716C31.0703 32.9968 31.2326 32.9968 31.3408 32.9968C31.4129 32.8703 31.485 32.2131 31.4488 32.0362H31.4308L31.4201 32.0338C30.9748 31.9339 30.6357 31.8578 30.3853 31.6822C30.1871 31.6064 30.0611 31.2018 30.0611 31.0758C30.0611 30.8154 30.0647 30.5094 30.0687 30.1714C30.0736 29.7546 30.0791 29.2892 30.0791 28.8008C30.0971 27.8146 30.0971 26.7277 30.0971 25.8935C30.0971 22.9359 29.1057 21.1915 27.4295 21.1915C26.7267 21.1915 25.6633 21.8742 24.5998 23.0118C24.5816 23.0625 24.5277 23.0877 24.4918 23.0877C24.4377 23.0877 24.4016 23.0625 24.3656 22.9863C23.843 21.7731 23.158 21.1915 22.2746 21.1915C21.734 21.1915 20.6887 21.6465 19.5351 22.9104C19.4992 22.9359 19.4631 22.9611 19.4269 22.9611C19.3551 22.9611 19.2828 22.8852 19.2828 22.7842C19.2828 22.4557 19.3008 22.127 19.3189 21.8487L19.3369 21.5709C19.3369 21.3688 19.2828 21.2167 19.2467 21.1663C18.6338 21.5457 17.084 22.0763 16.4893 22.1522C16.2549 22.2029 16.1467 22.3798 16.1467 22.5316C16.1287 22.6831 16.2369 22.8096 16.399 22.885C16.8496 23.0625 17.192 23.2898 17.4805 23.5424C17.6787 23.7446 17.6787 24.0229 17.6787 24.2502V24.3009C17.6969 26.2979 17.6969 29.1799 17.6426 30.6966C17.6246 31.3286 17.4805 31.6064 17.1199 31.7329C17.0995 31.7401 17.0792 31.7472 17.0589 31.7544C16.8646 31.8229 16.6697 31.8916 16.3269 31.9606C16.309 32.011 16.2728 32.1372 16.2728 32.3397Z" fill="#F9FAF7"/>
<path fill-rule="evenodd" clip-rule="evenodd" d="M6.84629 38.988L6.10742 38.6338C6.10742 38.6338 6.19766 33.3508 4.8457 32.9717C3.94472 31.5054 4.99023 -29.2141 8.23438 32.7693C8.23438 32.7693 7.1168 33.5527 6.91856 34.8928C6.70215 36.2074 6.84629 38.988 6.84629 38.988Z" fill="#F9FAF7"/>
<path fill-rule="evenodd" clip-rule="evenodd" d="M7.24293 33.8817C7.24293 33.8817 13.7136 27.9158 12.1994 15.5037C10.7396 6.47961 7.29703 3.52198 6.91852 2.38435C6.50406 1.57543 6.10738 0.160034 6.10738 0.160034L6.37789 25.2614C6.37789 25.2869 5.8191 32.9462 7.24313 33.882" fill="#F9FAF7"/>
<path fill-rule="evenodd" clip-rule="evenodd" d="M5.7289 34.2102C5.7289 34.2102 -0.345314 28.396 0.0152323 18.1584C0.357615 7.92052 4.64726 2.89006 5.47636 1.98006C6.01718 1.17115 6.03515 0.867633 6.07129 0.0587158C6.4498 1.19635 6.37773 17.0714 6.43164 18.9418C6.59375 26.1462 6.14336 32.8455 5.7289 34.2102Z" fill="#F9FAF7"/>
<mask id="path-6-inside-1" fill="white">
<path fill-rule="evenodd" clip-rule="evenodd" d="M6.8463 38.9879L6.10743 38.6337C6.10743 38.6337 6.19767 33.3507 4.84571 32.9716C3.94473 31.5052 4.99024 -29.2142 8.23439 32.7691C8.23439 32.7691 7.11681 33.5526 6.91857 34.8927C6.70216 36.2072 6.8463 38.9879 6.8463 38.9879Z"/>
</mask>
<path fill-rule="evenodd" clip-rule="evenodd" d="M6.8463 38.9879L6.10743 38.6337C6.10743 38.6337 6.19767 33.3507 4.84571 32.9716C3.94473 31.5052 4.99024 -29.2142 8.23439 32.7691C8.23439 32.7691 7.11681 33.5526 6.91857 34.8927C6.70216 36.2072 6.8463 38.9879 6.8463 38.9879Z" fill="#A6A385"/>
<path d="M6.10743 38.6337L1.22533 38.5503L1.17183 41.6826L3.99674 43.0368L6.10743 38.6337ZM4.84571 32.9716L0.685462 35.5278L1.68638 37.1568L3.52731 37.673L4.84571 32.9716ZM8.23439 32.7691L11.0372 36.7674L13.2519 35.2149L13.1105 32.5139L8.23439 32.7691ZM6.91857 34.8927L11.7365 35.6858L11.743 35.6465L11.7488 35.6072L6.91857 34.8927ZM8.95699 34.5849L8.21812 34.2307L3.99674 43.0368L4.73561 43.391L8.95699 34.5849ZM6.10743 38.6337C10.9895 38.7171 10.9895 38.7165 10.9896 38.7158C10.9896 38.7156 10.9896 38.7149 10.9896 38.7144C10.9896 38.7134 10.9896 38.7124 10.9896 38.7112C10.9897 38.7089 10.9897 38.7063 10.9898 38.7033C10.9898 38.6974 10.9899 38.6902 10.9901 38.6817C10.9903 38.6648 10.9905 38.6427 10.9908 38.6159C10.9912 38.5624 10.9916 38.4896 10.9915 38.4002C10.9913 38.2217 10.9891 37.9743 10.9817 37.679C10.967 37.0993 10.9307 36.2855 10.8386 35.4252C10.7524 34.6199 10.5926 33.5206 10.2485 32.4813C10.0778 31.9659 9.78892 31.2366 9.28407 30.5177C8.78676 29.8095 7.80495 28.7303 6.16411 28.2701L3.52731 37.673C2.22446 37.3077 1.53557 36.4765 1.29209 36.1298C1.155 35.9345 1.07549 35.7772 1.03676 35.694C0.996463 35.6073 0.979264 35.5552 0.977919 35.5511C0.977894 35.5511 1.00339 35.6326 1.0378 35.8185C1.07053 35.9953 1.10155 36.2129 1.12847 36.4645C1.18283 36.9723 1.20847 37.5029 1.21915 37.9257C1.22436 38.1316 1.22573 38.2998 1.22586 38.4118C1.22593 38.4675 1.22569 38.5086 1.22548 38.5327C1.22538 38.5447 1.22529 38.5523 1.22525 38.5554C1.22523 38.5569 1.22522 38.5573 1.22523 38.5565C1.22524 38.556 1.22525 38.5553 1.22527 38.5543C1.22527 38.5538 1.22528 38.5532 1.22529 38.5526C1.2253 38.5522 1.22531 38.5517 1.22531 38.5515C1.22532 38.5509 1.22533 38.5503 6.10743 38.6337ZM9.00596 30.4154C9.39284 31.045 9.52267 31.6005 9.53446 31.6464C9.57495 31.8042 9.59052 31.9077 9.59137 31.9131C9.59409 31.9306 9.58315 31.8592 9.56673 31.6551C9.53526 31.2639 9.50483 30.6598 9.48011 29.8505C9.4312 28.2492 9.41078 26.0611 9.42165 23.6267C9.44346 18.7386 9.59028 13.0758 9.85556 9.43117C9.92153 8.52483 9.99106 7.79753 10.0601 7.26512C10.1473 6.59303 10.1903 6.59628 10.0844 6.8857C10.0467 6.98881 9.93662 7.2775 9.71555 7.63059C9.54668 7.90031 8.9814 8.75717 7.82773 9.32941C7.1848 9.64831 6.38531 9.86239 5.49086 9.82409C4.60658 9.78624 3.86596 9.51216 3.3104 9.1931C2.31337 8.62048 1.82187 7.85808 1.67674 7.62343C1.35197 7.09834 1.26682 6.6959 1.30597 6.83796C1.31527 6.87169 1.35052 7.01322 1.40399 7.31028C1.87799 9.94383 2.54196 17.4281 3.35825 33.0244L13.1105 32.5139C12.3047 17.1185 11.6215 8.94894 11.0152 5.5804C10.9336 5.12719 10.838 4.66926 10.7206 4.24324C10.633 3.92555 10.4253 3.20306 9.98213 2.48652C9.7778 2.15614 9.22813 1.33016 8.17396 0.724731C6.81118 -0.0579391 5.05757 -0.197509 3.48831 0.58087C2.27956 1.18043 1.66024 2.09397 1.43836 2.44837C1.16428 2.88614 1.0022 3.28749 0.91352 3.52985C0.603785 4.37629 0.459482 5.36211 0.37556 6.00928C0.273524 6.79614 0.188298 7.72479 0.115697 8.72226C-0.173302 12.6929 -0.321688 18.6109 -0.343882 23.5831C-0.355021 26.0789 -0.334651 28.3908 -0.280959 30.1487C-0.254377 31.0189 -0.218047 31.8092 -0.167438 32.4383C-0.142812 32.7444 -0.108876 33.0895 -0.0574594 33.419C-0.032268 33.5804 0.0086031 33.8138 0.0753455 34.0739C0.113388 34.2221 0.270428 34.8523 0.685462 35.5278L9.00596 30.4154ZM8.23439 32.7691C5.43156 28.7709 5.43015 28.7719 5.42873 28.7729C5.42825 28.7732 5.42683 28.7742 5.42587 28.7749C5.42395 28.7762 5.42201 28.7776 5.42005 28.779C5.41614 28.7817 5.41213 28.7846 5.40805 28.7875C5.39988 28.7933 5.39139 28.7993 5.38257 28.8057C5.36494 28.8183 5.34601 28.8321 5.32586 28.8469C5.28558 28.8766 5.24025 28.9108 5.19052 28.9494C5.0914 29.0264 4.97303 29.1226 4.84133 29.2378C4.58146 29.4652 4.25025 29.7837 3.90668 30.1942C3.24478 30.9849 2.36188 32.3289 2.08832 34.1781L11.7488 35.6072C11.6735 36.1163 11.4485 36.3986 11.395 36.4626C11.3556 36.5096 11.3161 36.5486 11.272 36.5872C11.2482 36.6081 11.2187 36.6325 11.1814 36.6615C11.1627 36.6761 11.1415 36.6921 11.1177 36.7096C11.1058 36.7184 11.0932 36.7276 11.0798 36.7372C11.0731 36.742 11.0662 36.7469 11.0591 36.752C11.0556 36.7545 11.052 36.757 11.0483 36.7596C11.0465 36.7609 11.0447 36.7622 11.0428 36.7635C11.0419 36.7641 11.0405 36.7651 11.04 36.7654C11.0386 36.7664 11.0372 36.7674 8.23439 32.7691ZM2.1006 34.0995C1.91471 35.2287 1.91 36.6483 1.91874 37.4843C1.92377 37.966 1.93631 38.3978 1.94751 38.7087C1.95315 38.865 1.95852 38.9931 1.9626 39.0842C1.96465 39.1299 1.96637 39.1664 1.96765 39.1928C1.96829 39.206 1.96882 39.2167 1.96922 39.2247C1.96942 39.2287 1.96959 39.2321 1.96973 39.2347C1.9698 39.2361 1.96986 39.2372 1.96991 39.2382C1.96993 39.2387 1.96996 39.2392 1.96998 39.2396C1.96999 39.2398 1.97 39.2401 1.97001 39.2402C1.97002 39.2404 1.97004 39.2407 6.8463 38.9879C11.7226 38.7351 11.7226 38.7354 11.7226 38.7356C11.7226 38.7357 11.7226 38.7359 11.7226 38.736C11.7226 38.7362 11.7226 38.7364 11.7226 38.7366C11.7227 38.7369 11.7227 38.7371 11.7227 38.7371C11.7227 38.737 11.7226 38.7364 11.7226 38.7351C11.7224 38.7325 11.7222 38.7274 11.7218 38.7199C11.7211 38.705 11.7199 38.6805 11.7185 38.6475C11.7155 38.5815 11.7113 38.482 11.7068 38.3571C11.6977 38.1055 11.6878 37.76 11.6838 37.3822C11.6798 36.9999 11.6823 36.6131 11.6953 36.2724C11.7017 36.1034 11.7101 35.9623 11.7194 35.8503C11.7292 35.7327 11.7371 35.6825 11.7365 35.6858L2.1006 34.0995Z" fill="#828276" mask="url(#path-6-inside-1)"/>
<path fill-rule="evenodd" clip-rule="evenodd" d="M7.24292 33.8817C7.24292 33.8817 13.7136 27.9158 12.1994 15.5037C10.7396 6.47961 7.29702 3.52198 6.9185 2.38435C6.50405 1.57543 6.10737 0.160034 6.10737 0.160034L6.37788 25.2614C6.37788 25.2869 5.81889 32.946 7.24292 33.8817Z" fill="#2F2F2B"/>
<path d="M2.45513 18.2442L2.45527 18.2399C2.57242 14.737 3.1832 11.9138 3.9356 9.71453C3.94978 11.5759 3.95704 13.4569 3.96318 15.0476C3.97064 16.9804 3.97644 18.4845 3.99101 19.0038C4.05363 21.7936 4.02267 24.5059 3.93762 26.845C3.02783 24.5917 2.33323 21.7053 2.45513 18.2442Z" fill="#828276" stroke="#828276" stroke-width="4.88281"/>
</g>
<defs>
<clipPath id="clip0">
<path d="M0 6C0 2.68629 2.68629 0 6 0H94C97.3137 0 100 2.68629 100 6V34C100 37.3137 97.3137 40 94 40H6C2.68629 40 0 37.3137 0 34V6Z" fill="white"/>
</clipPath>
</defs>
</svg>
