<svg width="100" height="40" viewBox="0 0 100 40" fill="none" xmlns="http://www.w3.org/2000/svg">
<g clip-path="url(#clip0)">
<path fill-rule="evenodd" clip-rule="evenodd" d="M0 20.0015V32.0029C0 36.4212 3.58172 40.0029 8 40.0029H50H92C96.4183 40.0029 100 36.4212 100 32.0029V20.0015V8C100 3.58172 96.4183 0 92 0H50H8C3.58172 0 0 3.58172 0 8V20.0015ZM57.5385 4.51917C58.9855 4.56763 60.7248 4.70368 62.1538 4.88046C62.4803 4.92073 63.0935 4.9833 63.5165 5.01948C64.499 5.10366 66.2227 5.3091 66.5935 5.38623C66.9057 5.4513 68.3285 5.68064 69.1647 5.80077C70.321 5.96663 72.7025 6.42007 74.3077 6.77977C75.031 6.94176 75.992 7.13584 76.3955 7.20091C76.7128 7.25233 78.625 7.6994 79.2087 7.85866C79.4142 7.91463 80.043 8.06775 80.606 8.1988C81.169 8.32984 81.9305 8.51732 82.2982 8.61561C82.666 8.71389 83.2243 8.86041 83.5385 8.94118C84.3865 9.15892 85.0315 9.33957 85.89 9.59962C86.3132 9.72794 87.1143 9.96273 87.6702 10.1218C88.6472 10.4009 89.4062 10.6441 89.956 10.8537C90.101 10.909 90.7538 11.1467 91.4065 11.3822C92.0592 11.6175 92.6825 11.8509 92.7913 11.9007C92.9 11.9505 93.266 12.0939 93.6042 12.219C94.6413 12.6024 94.6975 12.675 94.5342 13.4144C94.389 14.0724 94.3698 14.2114 94.4147 14.2771C94.4648 14.3504 94.6715 14.0555 94.8613 13.641C95.1693 12.9675 95.4723 12.8381 96.2115 13.064C97.5575 13.4751 97.8005 14.1775 97.1383 15.7412C96.7358 16.6915 95.6557 18.5208 95.2215 18.9874C94.673 19.5769 93.1867 20.1987 91.4285 20.5748C89.992 20.8817 89.2255 21.0369 88.8572 21.0954C88.3117 21.1816 86.275 21.5508 85.7363 21.661C85.4703 21.7153 84.8473 21.8311 84.3518 21.9183C82.0003 22.3319 81.564 22.4104 81.011 22.5194C79.4473 22.8272 79.1547 22.8814 78.7253 22.9433C78.177 23.022 77.413 23.1751 77.1565 23.2575C76.7812 23.3778 75.773 23.6042 74.8132 23.7835C70.8802 24.5177 70.5375 24.8444 71.5608 26.8825C72.0185 27.7944 72.0767 27.7737 68.8572 27.841C67.745 27.8642 66.766 27.892 66.6813 27.9029C66.5967 27.9138 65.9307 27.9402 65.2012 27.9618C63.7707 28.0041 63.2403 28.0455 62.601 28.165C62.3758 28.2071 62.0592 28.2603 61.8978 28.2833C59.6367 28.6043 57.2072 29.9847 56.02 31.6226C55.8445 31.8649 55.6642 32.0928 55.6198 32.1295C55.425 32.2887 54.747 32.6425 54.636 32.6425C54.3815 32.6425 54.3975 32.9945 54.3737 26.824C54.349 20.4622 54.3783 20.9862 54.042 20.8583C53.8192 20.7734 46.5758 20.7739 46.353 20.8585C46.1665 20.9293 45.9863 21.152 45.7188 21.6416C45.6045 21.8507 45.332 22.3096 45.113 22.6616C44.894 23.0138 44.418 23.8058 44.055 24.4219C42.389 27.2508 42.4635 27.1976 41.8073 26.022C41.66 25.7579 41.4145 25.3349 41.2617 25.0819C41.1092 24.8289 40.6418 24.0458 40.2228 23.3416C38.8418 21.0203 38.762 20.9086 38.4335 20.8394C38.1757 20.7848 31.2548 20.7912 31.0823 20.8458C30.7833 20.9406 30.7938 20.8405 30.7693 23.8706C30.7473 26.5851 30.7467 26.6004 30.654 26.6845C30.512 26.8138 30.355 26.7153 29.999 26.2741C29.834 26.0693 29.4797 25.7021 29.212 25.458C28.9443 25.2139 28.4985 24.7932 28.2213 24.5229C27.5048 23.8246 26.4062 23.0363 25.5613 22.614C25.319 22.493 24.8738 22.2691 24.5715 22.1167C23.3498 21.5003 22.429 21.1124 21.7917 20.9457C19.2955 20.292 15.9325 19.8408 13.5653 19.8417C12.8188 19.842 11.7385 19.9248 10.4615 20.0795C9.94175 20.1425 9.39775 20.2049 9.25275 20.2181C8.09825 20.3236 6.307 20.6656 4.93375 21.0423C3.3895 21.466 2.7895 21.5001 3.027 21.1502C3.18575 20.9165 4.22725 20.0852 5.521 19.1594C5.9345 18.8634 6.5355 18.433 6.8565 18.2027C8.66725 16.9031 12.5042 14.5433 14.2417 13.6606C14.4955 13.5316 14.9237 13.305 15.1932 13.1571C15.9517 12.7407 19.2768 11.1797 20.044 10.8799C20.2253 10.8089 20.7592 10.5895 21.2307 10.3923C22.4655 9.87605 23.3603 9.56048 25.5825 8.85814C27.896 8.12667 30.943 7.43479 32.9005 7.19636C33.0935 7.17292 33.2618 7.1479 33.2745 7.14061C33.5615 6.97931 36.955 6.78319 39.033 6.80821C40.831 6.82983 40.8485 6.83597 40.9292 7.49008C41.4412 11.6357 43.5693 14.9269 47.4548 17.5827C49.0355 18.6632 51.3728 19.7214 52.178 19.7214C52.5255 19.7214 52.4517 19.6679 51.4017 19.1571C47.8223 17.4157 44.7335 14.5938 43.3068 11.7608C42.2365 9.63579 41.959 8.68841 41.9598 7.16064C41.9603 5.42696 42.4525 4.96169 44.4615 4.79628C46.0417 4.66591 49.6442 5.2909 52.3517 6.16502C53.6275 6.57683 54.3737 6.75452 54.3737 6.64622C54.3737 6.53314 53.3237 6.0003 52.5472 5.71954C51.1273 5.20627 51.0148 4.94257 52.1385 4.76261C53.6628 4.51871 55.3075 4.44454 57.5385 4.51917ZM44.8088 7.83636C43.9798 8.29663 44.9627 10.5704 46.9302 12.743C48.51 14.4876 52.0673 17.1074 52.3305 16.7202C52.382 16.6442 52.1808 16.3455 51.6245 15.6714C50.8615 14.747 50.8522 14.6612 51.5165 14.6612C52.1065 14.6612 52.0787 14.5756 51.1872 13.641C49.8972 12.2884 49.9933 12.1289 51.6823 12.8172C52.5073 13.1532 52.537 13.0517 51.8913 12.1043C51.449 11.4552 51.575 11.3576 52.4637 11.6607C53.297 11.9446 53.3565 11.7927 52.6522 11.1797C51.6527 10.3099 49.544 9.1687 47.7583 8.53143C45.7038 7.79814 45.124 7.66163 44.8088 7.83636ZM66.8727 10.1215C66.511 10.2244 66.6898 10.3641 67.5055 10.6159C68.2135 10.8346 68.3303 10.9085 68.6735 11.3542C69.7067 12.6961 71.938 13.1236 76.3077 12.8176C77.835 12.7105 77.9215 12.6984 78.2773 12.5385C78.8495 12.2816 78.7952 12.0718 78.1223 11.9399C77.9342 11.9028 77.2262 11.7506 76.5495 11.6013C74.303 11.1062 73.1205 10.8869 70.6155 10.5017C69.8418 10.3827 68.9812 10.2474 68.7032 10.2007C68.1392 10.1061 67.0867 10.0608 66.8727 10.1215ZM75.4285 20.1994C74.6835 20.3639 74.2718 20.469 73.7803 20.6208C73.3815 20.7436 72.295 21.0583 71.2805 21.3443C70.7542 21.4924 69.4607 22.0844 68.8132 22.4727C67.5342 23.2404 67.405 23.5614 67.8538 24.8569C68.2467 25.9915 68.5918 26.0702 68.4915 25.0025C68.3532 23.5312 68.6753 23.1512 70.9313 22.1249C72.507 21.408 72.466 21.4223 75.1428 20.641C76.7743 20.1648 76.9722 19.8588 75.4285 20.1994ZM39.21 29.1631C39.2782 29.2298 39.4972 29.5224 39.6963 29.8133C39.8955 30.1041 40.1912 30.5223 40.3532 30.7423C40.7262 31.2485 41.4258 32.241 41.8447 32.8584C42.4912 33.8108 42.609 33.8347 43.106 33.1144C43.342 32.7724 44.8475 30.6715 45.489 29.789C46.0787 28.9779 46.1787 28.9056 46.3275 29.1822C46.4367 29.3856 46.424 37.685 46.314 37.8897C46.162 38.1725 46.298 38.1628 42.5025 38.1628C38.81 38.1628 38.9075 38.1687 38.8112 37.9382C38.7537 37.8005 38.7545 29.2825 38.812 29.1447C38.8727 28.9993 39.0502 29.0077 39.21 29.1631Z" fill="#F4F4F4"/>
</g>
<defs>
<clipPath id="clip0">
<rect width="100" height="40" fill="white"/>
</clipPath>
</defs>
</svg>
