<svg width="25" height="25" viewBox="0 0 25 25" fill="none" xmlns="http://www.w3.org/2000/svg">
<path d="M11.372 0.266715C12.0551 -0.0881031 12.9449 -0.0897058 13.6274 0.266715C17.0611 2.02736 20.4958 3.78524 23.9289 5.54696C24.5746 5.87702 25.0065 6.52914 24.9999 7.20432V17.797C25.0047 18.5002 24.5301 19.1679 23.8489 19.4905C20.4265 21.2414 17.0059 22.9945 13.5841 24.7454C12.8869 25.1072 11.9793 25.0793 11.3038 24.6879C10.2778 24.1481 9.25002 23.6111 8.2239 23.0718C8.01422 22.9584 7.77785 22.8681 7.62979 22.6836C7.76068 22.5235 7.99469 22.5036 8.18485 22.4337C8.61313 22.3101 9.00649 22.1117 9.39995 21.9192C9.49944 21.8575 9.62091 21.8811 9.71628 21.9364C10.5937 22.3929 11.4633 22.8627 12.3436 23.3148C12.5314 23.4132 12.7216 23.2826 12.8821 23.2014C16.2405 21.4789 19.603 19.763 22.9608 18.04C23.0852 17.9857 23.154 17.8659 23.1439 17.7422C23.1463 14.2479 23.1445 10.7529 23.1451 7.25863C23.1593 7.11831 23.0698 6.98929 22.93 6.93186C19.5195 5.18893 16.1108 3.44334 12.7009 1.69997C12.6418 1.66311 12.5718 1.64333 12.5001 1.64324C12.4284 1.64314 12.3584 1.66273 12.2992 1.69943C8.88924 3.44334 5.48109 5.19054 2.07117 6.93337C1.93184 6.99089 1.83834 7.11777 1.85492 7.25863C1.85551 10.7529 1.85492 14.2479 1.85492 17.7427C1.84901 17.8031 1.86361 17.8636 1.89677 17.9162C1.92992 17.9688 1.98004 18.0109 2.04036 18.0368C2.95032 18.5051 3.86145 18.97 4.77199 19.4367C5.28495 19.6872 5.91477 19.8361 6.47994 19.6441C6.97867 19.4818 7.32827 19.02 7.31875 18.5394C7.32346 15.0655 7.3164 11.5911 7.32229 8.11767C7.30982 7.96346 7.47103 7.83605 7.63626 7.85056C8.07348 7.84789 8.51129 7.84522 8.9485 7.85163C9.131 7.84789 9.2566 8.01394 9.23403 8.16932C9.23226 11.6652 9.23874 15.1612 9.23108 18.6571C9.23226 19.5888 8.81045 20.6026 7.86076 21.0585C6.69079 21.6085 5.24472 21.4919 4.08888 20.9645C3.08827 20.5113 2.13338 19.9764 1.15053 19.4909C0.467522 19.1701 -0.00472336 18.4997 8.44507e-05 17.7971V7.20432C-0.00707821 6.51516 0.442011 5.8512 1.10784 5.52594C4.52963 3.77358 7.95083 2.01988 11.372 0.266715Z" fill="white"/>
<path d="M14.3572 7.60435C15.8496 7.51718 17.4473 7.55271 18.7902 8.21987C19.83 8.73113 20.4065 9.80413 20.4248 10.8524C20.3958 10.9938 20.2329 11.0718 20.0841 11.0621C19.6511 11.0615 19.218 11.0674 18.785 11.0594C18.6014 11.0658 18.4946 10.9121 18.4716 10.7648C18.3471 10.2632 18.0457 9.76646 17.5255 9.52455C16.7269 9.16172 15.801 9.17997 14.9302 9.18754C14.2944 9.21817 13.6109 9.26812 13.0723 9.60735C12.6588 9.86432 12.5332 10.3831 12.6808 10.8008C12.8199 11.1008 13.2015 11.1976 13.5137 11.2868C15.3122 11.7136 17.2181 11.6712 18.9823 12.2329C19.7127 12.4619 20.4272 12.9071 20.6772 13.6011C21.0042 14.5312 20.8608 15.6429 20.1316 16.3896C19.5403 17.004 18.679 17.3384 17.82 17.5201C16.6772 17.7513 15.4912 17.7572 14.3306 17.6545C13.2394 17.5416 12.1037 17.2815 11.2613 16.6067C10.5409 16.0391 10.1891 15.1547 10.224 14.3011C10.2323 14.1569 10.3905 14.0564 10.5427 14.0682C10.9787 14.065 11.4148 14.064 11.8508 14.0688C12.025 14.0575 12.1541 14.1941 12.163 14.343C12.2435 14.8209 12.4414 15.3224 12.9006 15.6058C13.7868 16.1246 14.8988 16.0891 15.9135 16.1036C16.7542 16.0697 17.6979 16.0595 18.3839 15.5553C18.7459 15.2677 18.8531 14.7865 18.7553 14.3726C18.6493 14.0231 18.2465 13.8603 17.9005 13.7538C16.125 13.2441 14.1979 13.429 12.4396 12.8527C11.7258 12.6238 11.0355 12.191 10.7613 11.5255C10.3786 10.5837 10.554 9.41868 11.3596 8.6972C12.1452 7.97956 13.2791 7.70318 14.3572 7.60426V7.60435Z" fill="white"/>
</svg>
