<svg width="25" height="25" viewBox="0 0 25 25" fill="none" xmlns="http://www.w3.org/2000/svg">
<g clip-path="url(#clip0)">
<path fill-rule="evenodd" clip-rule="evenodd" d="M1.04169 1.07059H1.04165V23.9292H23.9584V23.9292H23.9584V1.07056H1.04169V1.07059ZM1.04169 1.07059V23.9292H23.9584V1.07059H1.04169ZM25 24.9974H0V0.00244141H25V24.9974ZM15.7501 11.0365C15.7501 10.684 16.0313 10.2568 16.8542 10.2568C17.5313 10.2568 18.2084 10.4384 18.6667 10.7374C18.7709 10.7695 18.8229 10.716 18.8229 10.6306V9.16722C18.8229 9.09246 18.8021 9.00702 18.7188 8.95361C18.375 8.79341 17.75 8.65453 16.8542 8.65453C15.0313 8.65453 13.9792 9.79743 13.9792 11.1754C13.9792 12.4038 14.5937 13.1408 16.0729 13.8671C17.125 14.4226 17.3646 14.7644 17.3646 15.1489C17.3646 15.6296 17.0209 15.9821 16.198 15.9821C15.5105 15.9821 14.7605 15.7899 14.1042 15.3519C14.0313 15.2984 13.9792 15.3305 13.9792 15.4373V17.0075C13.9792 17.093 13.9896 17.1464 14.0625 17.1785C14.5104 17.4455 15.2917 17.6377 16.198 17.6377C17.9167 17.6377 19.1876 16.7191 19.1876 15.0101C19.1876 13.8671 18.6771 13.0874 17.0417 12.2756C15.9375 11.6881 15.7501 11.421 15.7501 11.0365ZM8.73954 11.5492C8.32293 11.5492 8.13542 11.5492 7.89584 11.5279V7.40478C8.08335 7.3941 8.47922 7.37274 8.89587 7.37274C10.2813 7.37274 11.1042 8.0564 11.1042 9.41295C11.1042 11.1113 9.9584 11.5492 8.7396 11.5492H8.73954ZM6.27084 5.72774C6.18756 5.72774 6.04171 5.78118 6.04171 5.85594L6.04166 17.328C6.04166 17.4241 6.08337 17.4561 6.16669 17.4561H7.76044C7.85418 17.4561 7.88542 17.4134 7.88542 17.328V13.2262C8.01409 13.2262 8.11223 13.2307 8.21873 13.2356C8.34507 13.2413 8.48317 13.2476 8.69794 13.2476C11.0521 13.2476 12.9688 12.0833 12.9688 9.37018C12.9688 7.29793 11.8438 5.67433 8.95836 5.67433C7.92712 5.67433 6.93755 5.69569 6.27084 5.72774Z" fill="white"/>
</g>
<defs>
<clipPath id="clip0">
<rect width="25" height="25" fill="white"/>
</clipPath>
</defs>
</svg>
