<svg width="51" height="25" viewBox="0 0 51 25" fill="none" xmlns="http://www.w3.org/2000/svg">
<g clip-path="url(#clip0)">
<path fill-rule="evenodd" clip-rule="evenodd" d="M0.5 12.5V16.9999C0.5 21.4182 4.08172 24.9999 8.5 24.9999H25.5H42.5C46.9183 24.9999 50.5 21.4182 50.5 16.9999V12.5V8C50.5 3.58173 46.9183 0 42.5 0H25.5H8.5C4.08172 0 0.5 3.58172 0.5 8V12.5ZM26.349 1.77129C27.0261 1.81056 27.6435 1.87753 28.12 1.96312C28.623 2.05361 28.7411 2.07723 29.1007 2.15954C29.5064 2.25238 30.1595 2.43235 30.353 2.50453C30.438 2.53633 30.5184 2.56231 30.5315 2.56231C30.5446 2.56231 30.5936 2.57744 30.6404 2.59584C30.6871 2.61435 30.7912 2.653 30.8717 2.68174C31.8157 3.01855 32.9766 3.60199 33.7988 4.15272C33.879 4.2065 33.9691 4.26663 33.9991 4.28636C34.6269 4.70068 35.6919 5.63975 36.1716 6.20213C37.13 7.32546 37.6307 8.15963 38.1411 9.48275C38.7519 11.066 38.8363 13.0977 38.3638 14.8467C38.1711 15.5598 37.9171 16.2026 37.5974 16.7864C37.5576 16.8588 37.5006 16.9691 37.4705 17.0314C37.3258 17.3313 36.6174 18.3604 36.4111 18.5704C36.3983 18.5836 36.2949 18.7013 36.1815 18.8321C35.4906 19.6287 34.4929 20.4656 33.4625 21.1127C33.2496 21.2463 32.3051 21.7673 32.2756 21.7673C32.2653 21.7673 32.2218 21.7871 32.179 21.8115C32.0241 21.8996 31.1987 22.254 30.9889 22.3225C30.9245 22.3436 30.7994 22.3872 30.7108 22.4196C30.219 22.5995 29.6961 22.7552 29.1959 22.8708C29.1435 22.8828 29.0513 22.9041 28.9909 22.918C27.3258 23.3022 25.2199 23.4032 23.5386 23.1795C23.4501 23.1676 23.2854 23.1458 23.1728 23.1311C23.06 23.1163 22.9282 23.0955 22.88 23.085C22.8316 23.0745 22.7131 23.0523 22.6165 23.0358C21.9683 22.9248 20.9769 22.6693 20.4725 22.4834C20.4042 22.4583 20.3421 22.4377 20.3344 22.4377C20.2481 22.4377 19.1253 21.9708 18.7231 21.7677C18.6104 21.7107 18.4655 21.6384 18.401 21.607C18.298 21.5565 18.1798 21.4914 17.9195 21.3416C17.5846 21.1489 17.1194 20.8463 16.7326 20.5699C16.1359 20.1434 15.22 19.3096 14.7996 18.8099C14.722 18.7176 14.6035 18.5776 14.5363 18.4985C14.3035 18.225 13.8536 17.5896 13.68 17.2893C13.3829 16.7752 13.3588 16.7287 13.1316 16.2356C11.9951 13.7681 12.0683 10.9019 13.3315 8.39317C13.6824 7.69643 14.2945 6.77995 14.691 6.35776C14.7034 6.34457 14.7781 6.25919 14.8571 6.16808C15.2954 5.66235 16.2126 4.8426 16.8024 4.42941C16.9051 4.35732 17.004 4.28759 17.0219 4.27429C17.0875 4.22583 17.3523 4.0518 17.5375 3.93533C17.7496 3.80189 18.6947 3.28062 18.7244 3.28062C18.7347 3.28062 18.7782 3.26078 18.821 3.23645C18.9749 3.14892 19.6571 2.85556 19.9673 2.7435C20.0719 2.70576 20.23 2.6484 20.3185 2.61609C20.7074 2.47417 21.3041 2.29932 21.8115 2.17846C21.9323 2.14972 22.064 2.11762 22.1042 2.10709C22.1445 2.09655 22.2366 2.07682 22.3091 2.06332C22.3816 2.04982 22.5001 2.02753 22.5726 2.01373C23.7219 1.79522 25.1659 1.70258 26.349 1.77129ZM31.267 5.81082C29.4589 6.13005 29.1561 8.17067 30.8132 8.86914C31.3256 9.0852 32.3096 9.0944 32.5648 8.88571C32.5854 8.86884 32.3765 8.68284 31.9016 8.29541C31.455 7.93089 31.2084 7.71258 31.2084 7.6815C31.2084 7.65021 31.52 7.3773 32.094 6.90562C32.581 6.50551 32.9833 6.1688 32.9879 6.15755C33.0044 6.11706 32.5923 5.92105 32.3355 5.84722C32.0528 5.76603 31.607 5.7508 31.267 5.81082ZM32.3574 6.98221C31.9026 7.35644 31.5305 7.67087 31.5305 7.68089C31.5305 7.69091 31.8256 7.9405 32.1865 8.23539L32.7372 8.68554C32.8 8.73688 32.8888 8.74178 32.9569 8.69767V8.69767C33.0932 8.60933 33.2874 8.44 33.3633 8.34327C33.3933 8.30482 33.4332 8.26024 33.452 8.24419C33.673 8.05431 33.7844 7.36319 33.6564 6.97617C33.5873 6.76727 33.2674 6.29467 33.1991 6.3005C33.191 6.30121 32.8122 6.60797 32.3574 6.98221ZM33.2105 7.1727C33.4225 7.34622 33.2843 7.92629 33.0309 7.92629C32.883 7.92629 32.8305 7.80257 32.9331 7.69582C33.0152 7.61054 33.0361 7.47066 32.9825 7.36575C32.8984 7.20102 33.0687 7.05675 33.2105 7.1727ZM28.808 8.29541C27.8291 8.48826 26.3586 9.44778 23.5609 11.7191V11.7191C23.4255 11.829 23.425 12.0355 23.5599 12.1461L23.8065 12.3482C24.0859 12.5771 24.3315 12.7614 24.3525 12.758C24.3735 12.7544 25.5064 11.8403 26.8701 10.7266C29.4229 8.64184 29.4498 8.6217 29.7231 8.58294C29.8819 8.56045 29.8793 8.54112 29.7048 8.44634C29.4144 8.28867 29.1058 8.23672 28.808 8.29541ZM29.7594 8.77947C29.7271 8.78612 29.657 8.8079 29.6035 8.82784C29.5109 8.8624 24.5632 12.8841 24.5632 12.9249C24.5632 13.0085 25.2377 13.4766 25.2706 13.4159C25.2839 13.3917 25.836 12.988 26.0854 12.8203C26.1417 12.7824 26.2151 12.7298 26.2485 12.7036C26.2819 12.6772 26.3797 12.6071 26.466 12.5479C26.5524 12.4886 26.6504 12.4186 26.684 12.3922C26.7175 12.3659 26.8436 12.2743 26.9641 12.1887C27.0846 12.1031 27.1899 12.0277 27.1979 12.021C27.206 12.0144 27.3706 11.8959 27.5639 11.7576C27.757 11.6194 27.9218 11.5009 27.9298 11.4942C27.9378 11.4877 28.0431 11.4122 28.1636 11.3266C28.3516 11.1932 28.4355 11.1326 28.6437 10.9794C28.6616 10.9662 28.7751 10.8854 28.8959 10.7998C29.0165 10.7143 29.1219 10.6388 29.13 10.6322C29.138 10.6256 29.2432 10.5502 29.3639 10.4646C29.4845 10.379 29.6295 10.2747 29.6859 10.233C29.7424 10.1911 29.8216 10.1339 29.8619 10.1057C30.499 9.65862 30.5936 9.55801 30.5936 9.32713C30.5936 8.99001 30.1499 8.69869 29.7594 8.77947ZM30.5485 9.88552C30.2164 10.1248 30.0235 10.2644 29.9961 10.2853C29.9786 10.2987 29.5954 10.5734 29.1446 10.8956C28.6937 11.2178 28.3106 11.4925 28.2931 11.5058C28.2484 11.5401 27.9378 11.7635 27.3589 12.1779C27.0851 12.3738 26.8546 12.5402 26.8466 12.5476C26.8385 12.555 26.7464 12.6201 26.6418 12.6922C26.5371 12.7643 26.4317 12.8395 26.4075 12.8594C26.3834 12.8792 26.2647 12.9654 26.144 13.0509C26.0232 13.1364 25.9179 13.2117 25.9099 13.2184C25.9018 13.225 25.7964 13.3005 25.6756 13.3861C25.3924 13.5869 25.3829 13.5944 25.3829 13.6181C25.3829 13.629 25.5869 13.8046 25.8361 14.0082L26.1681 14.2793C26.2392 14.3373 26.3409 14.339 26.4139 14.2833V14.2833C26.6615 14.0943 28.5066 12.5802 28.6626 12.4381C29.8552 11.3517 30.405 10.6626 30.6227 9.98143C30.671 9.83081 30.6544 9.80924 30.5485 9.88552ZM22.4481 12.6223C21.5918 13.3289 21.5875 13.3195 22.675 13.1243C22.8361 13.0955 23.1456 13.0411 23.363 13.0036C23.9894 12.8955 24.0656 12.8801 24.0656 12.863C24.0656 12.8358 23.1449 12.0928 23.1139 12.095C23.0979 12.096 22.7984 12.3333 22.4481 12.6223ZM23.9704 13.3882C23.5359 13.7494 23.5236 13.7955 23.8786 13.732C23.9895 13.7122 24.1461 13.6855 24.2266 13.6727C24.373 13.6496 24.4696 13.6324 24.7644 13.5777V13.5777C24.8266 13.5661 24.847 13.4871 24.798 13.4469L24.6479 13.3235C24.316 13.0509 24.3843 13.0444 23.9704 13.3882ZM25.0566 13.7327C25.049 13.7389 24.9053 13.7671 24.7371 13.7951C24.569 13.8232 24.3854 13.8546 24.329 13.8649C24.2726 13.8752 24.0883 13.9076 23.9193 13.9368C23.7501 13.9659 23.5591 13.9997 23.4947 14.0117C23.4304 14.0237 23.3266 14.0403 23.2642 14.0486C23.1535 14.0633 19.0305 17.3813 19.0305 17.4559C19.0305 17.4918 20.3998 18.6064 20.4428 18.6056C20.6213 18.6019 20.6188 18.5063 20.4228 17.852C20.3285 17.5378 20.3413 17.5178 20.7436 17.3493C21.1163 17.1933 21.614 16.9763 21.9139 16.8393C22.0428 16.7805 22.2184 16.7016 22.3041 16.6638C22.3899 16.6262 22.4974 16.5738 22.5429 16.5472C22.5884 16.5207 22.632 16.499 22.64 16.499C22.648 16.499 22.7411 16.456 22.8471 16.4033C22.9532 16.3505 23.0473 16.3075 23.0564 16.3075C23.0654 16.3075 23.0886 16.2967 23.1081 16.2835C23.1593 16.2487 23.6571 15.9896 23.7435 15.9528C23.8396 15.9119 24.9176 15.2949 25.0609 15.1988C25.085 15.1826 25.1509 15.1431 25.2073 15.111C25.2636 15.0788 25.3163 15.0464 25.3244 15.0389C25.3324 15.0313 25.3983 14.9879 25.4708 14.9425C25.5431 14.8971 25.609 14.8541 25.6171 14.847C25.6251 14.8399 25.7041 14.7858 25.7927 14.7267C25.8812 14.6676 25.9865 14.595 26.0266 14.5654V14.5654C26.0636 14.5381 26.065 14.4833 26.0294 14.4541L25.6171 14.1164C25.1734 13.753 25.0964 13.7002 25.0566 13.7327ZM18.2806 18.0446C17.5841 18.6154 17.545 18.5637 18.7231 18.6297C18.9806 18.6441 19.3628 18.6674 19.572 18.6816C19.7814 18.6956 19.9971 18.7033 20.0515 18.6986V18.6986C20.0875 18.6955 20.1016 18.6502 20.0735 18.6273L19.498 18.1573C19.139 17.8643 18.8336 17.6245 18.8194 17.6245C18.805 17.6245 18.5625 17.8135 18.2806 18.0446Z" fill="#FBFBFB"/>
</g>
<defs>
<clipPath id="clip0">
<rect width="50" height="25" fill="white" transform="translate(0.5)"/>
</clipPath>
</defs>
</svg>
