<svg width="25" height="25" viewBox="0 0 25 25" fill="none" xmlns="http://www.w3.org/2000/svg">
<g clip-path="url(#clip0)">
<path d="M18.5849 16.2882C18.1136 16.5695 17.607 16.6559 17.1147 16.8136C16.9808 16.8564 16.8394 16.8182 16.7042 16.8525C15.6542 17.1189 15.2575 17.888 15.1092 19.9327C15.0303 21.0211 14.8736 22.0555 14.5321 22.9816C13.955 24.5457 12.834 25.2555 11.8745 24.6445C10.8475 23.9904 10.2254 22.2784 10.3084 20.3346C10.3831 18.5834 11.1395 17.0362 12.2016 16.5866C12.699 16.3761 13.2151 16.2937 13.7254 16.2087C14.6779 16.0504 15.0986 15.2866 15.2573 13.5737C15.3486 12.5882 15.2672 11.6584 15.1477 10.7287C14.9651 9.30785 14.3995 8.64767 13.4497 8.52124C12.9314 8.45214 12.4042 8.31464 11.9082 8.04214C10.8642 7.46803 10.2564 5.81053 10.3045 3.86607C10.3467 2.16339 11.1049 0.505529 12.0156 0.124815C13.0946 -0.326435 14.1687 0.462672 14.6276 2.21999C14.8684 3.14214 15.0006 4.18678 15.0949 5.20303C15.2637 7.02517 15.6596 7.73214 16.6533 7.92964C17.2961 8.05749 17.951 8.20321 18.5639 8.55392C19.4946 9.0866 20.0537 10.6729 20.0535 12.4357C20.0534 14.1602 19.4763 15.7562 18.5849 16.2882Z" fill="white"/>
<path d="M7.62492 16.5682C6.37724 16.5685 5.35863 14.7062 5.35843 12.4248C5.35824 10.1432 6.37656 8.28014 7.62404 8.27979C8.87163 8.27943 9.89024 10.1418 9.89043 12.4232C9.89063 14.7048 8.87231 16.5678 7.62492 16.5682ZM2.26023 24.8571C1.01362 24.8514 -0.00137788 22.9827 0.0017467 20.6991C0.00487127 18.4193 1.02661 16.563 2.27526 16.5689C3.52187 16.5744 4.53687 18.4432 4.53374 20.7268C4.53062 23.0066 3.50888 24.8628 2.26023 24.8571ZM22.7488 24.8571C21.499 24.8702 20.4729 23.0214 20.4657 20.7441C20.4586 18.4585 21.4695 16.5818 22.7148 16.5689C23.9646 16.5557 24.9906 18.4043 24.9978 20.6818C25.005 22.9673 23.9941 24.8441 22.7488 24.8571Z" fill="#828276"/>
</g>
<defs>
<clipPath id="clip0">
<rect width="25" height="25" fill="white"/>
</clipPath>
</defs>
</svg>
