<svg width="25" height="25" viewBox="0 0 25 25" fill="none" xmlns="http://www.w3.org/2000/svg">
<path d="M25 12.5022C25 11.0488 22.926 9.67137 19.7462 8.81721C20.48 5.97297 20.1539 3.7101 18.7169 2.98562C18.3856 2.81568 17.9984 2.73518 17.5754 2.73518V3.73246C17.8098 3.73246 17.9984 3.77271 18.1563 3.84873C18.8494 4.19755 19.15 5.52576 18.9156 7.23409C18.8596 7.65447 18.7678 8.0972 18.6557 8.54888C17.6569 8.33422 16.5664 8.16876 15.4199 8.06143C14.732 7.23409 14.0185 6.48278 13.3 5.82539C14.9613 4.47035 16.5206 3.72799 17.5805 3.72799V2.73071C16.1792 2.73071 14.3447 3.60724 12.4898 5.12774C10.6349 3.61618 8.80045 2.7486 7.3991 2.7486V3.74587C8.45393 3.74587 10.0183 4.48377 11.6796 5.82986C10.9662 6.48726 10.2528 7.23409 9.57501 8.06143C8.42336 8.16876 7.33286 8.33422 6.33408 8.55335C6.21688 8.10615 6.13025 7.67235 6.0691 7.25645C5.8296 5.54812 6.12515 4.21991 6.81309 3.86662C6.96596 3.78612 7.1647 3.75035 7.3991 3.75035V2.75307C6.97106 2.75307 6.58377 2.83357 6.24745 3.00351C4.81553 3.72799 4.4945 5.98638 5.23339 8.82168C2.0638 9.68032 0 11.0532 0 12.5022C0 13.9556 2.07399 15.333 5.25377 16.1872C4.51998 19.0314 4.84611 21.2943 6.28312 22.0188C6.61435 22.1887 7.00163 22.2692 7.42968 22.2692C8.83102 22.2692 10.6655 21.3927 12.5204 19.8722C14.3753 21.3837 16.2097 22.2513 17.6111 22.2513C18.0391 22.2513 18.4264 22.1708 18.7627 22.0009C20.1947 21.2764 20.5157 19.018 19.7768 16.1827C22.9362 15.3285 25 13.9511 25 12.5022V12.5022ZM18.3653 9.51932C18.1767 10.0962 17.9423 10.691 17.6773 11.2858C17.4684 10.928 17.2493 10.5703 17.0098 10.2125C16.7754 9.85473 16.5257 9.50591 16.276 9.16603C16.9996 9.25994 17.6977 9.37622 18.3653 9.51932ZM16.0314 14.2821C15.6339 14.8858 15.2263 15.4582 14.8033 15.9904C14.044 16.0486 13.2746 16.0799 12.5 16.0799C11.7305 16.0799 10.9611 16.0486 10.2069 15.9949C9.78394 15.4627 9.37118 14.8948 8.97371 14.2955C8.58642 13.7097 8.23481 13.1149 7.91378 12.5156C8.22972 11.9164 8.58643 11.3171 8.96861 10.7313C9.36608 10.1275 9.77375 9.5551 10.1967 9.02292C10.956 8.96478 11.7254 8.93348 12.5 8.93348C13.2695 8.93348 14.0389 8.96478 14.7931 9.01845C15.2161 9.55063 15.6288 10.1186 16.0263 10.7178C16.4136 11.3037 16.7652 11.8985 17.0862 12.4977C16.7652 13.097 16.4136 13.6962 16.0314 14.2821ZM17.6773 13.7007C17.9525 14.3 18.1869 14.8992 18.3806 15.4806C17.713 15.6237 17.0098 15.7444 16.2811 15.8384C16.5308 15.494 16.7805 15.1407 17.0149 14.7785C17.2493 14.4207 17.4684 14.0585 17.6773 13.7007ZM12.5102 18.4724C12.0363 18.0431 11.5624 17.5646 11.0936 17.0414C11.5522 17.0592 12.021 17.0727 12.4949 17.0727C12.9739 17.0727 13.4478 17.0637 13.9115 17.0414C13.4529 17.5646 12.979 18.0431 12.5102 18.4724ZM8.71892 15.8384C7.99531 15.7444 7.29719 15.6282 6.62964 15.4851C6.81818 14.9082 7.05259 14.3134 7.31757 13.7186C7.5265 14.0764 7.74562 14.4341 7.98512 14.7919C8.22462 15.1497 8.46922 15.4985 8.71892 15.8384ZM12.4847 6.53198C12.9586 6.9613 13.4325 7.43981 13.9013 7.96304C13.4427 7.94515 12.9739 7.93174 12.5 7.93174C12.021 7.93174 11.5471 7.94068 11.0834 7.96304C11.542 7.43981 12.0159 6.9613 12.4847 6.53198ZM8.71382 9.16603C8.46413 9.51038 8.21443 9.86367 7.98002 10.2259C7.74562 10.5837 7.5265 10.9414 7.31757 11.2992C7.0424 10.6999 6.80799 10.1007 6.61435 9.51932C7.2819 9.38069 7.98512 9.25994 8.71382 9.16603V9.16603ZM4.10212 14.7651C2.29821 14.0898 1.13127 13.2043 1.13127 12.5022C1.13127 11.8001 2.29821 10.9101 4.10212 10.2393C4.54036 10.0739 5.01936 9.92628 5.51366 9.78765C5.80412 10.6642 6.1863 11.5765 6.66021 12.5111C6.1914 13.4413 5.81431 14.3492 5.52895 15.2212C5.02446 15.0826 4.54546 14.9305 4.10212 14.7651ZM6.84366 21.1557C6.15063 20.8068 5.84998 19.4786 6.08439 17.7703C6.14044 17.3499 6.23217 16.9072 6.34427 16.4555C7.34305 16.6702 8.43355 16.8356 9.58011 16.943C10.268 17.7703 10.9815 18.5216 11.7 19.179C10.0387 20.534 8.47941 21.2764 7.41949 21.2764C7.19017 21.2719 6.99654 21.2317 6.84366 21.1557V21.1557ZM18.9309 17.7479C19.1704 19.4563 18.8748 20.7845 18.1869 21.1378C18.034 21.2183 17.8353 21.254 17.6009 21.254C16.5461 21.254 14.9817 20.5162 13.3204 19.1701C14.0338 18.5127 14.7472 17.7658 15.425 16.9385C16.5766 16.8312 17.6671 16.6657 18.6659 16.4466C18.7831 16.8982 18.8748 17.332 18.9309 17.7479V17.7479ZM20.8928 14.7651C20.4545 14.9305 19.9755 15.0781 19.4812 15.2167C19.1908 14.3402 18.8086 13.4279 18.3347 12.4933C18.8035 11.5631 19.1806 10.6552 19.466 9.78317C19.9704 9.92181 20.4494 10.0739 20.8979 10.2393C22.7018 10.9146 23.8687 11.8001 23.8687 12.5022C23.8636 13.2043 22.6967 14.0943 20.8928 14.7651V14.7651Z" fill="#F9FAF7"/>
<path d="M12.4949 14.546C13.7811 14.546 14.8237 13.631 14.8237 12.5022C14.8237 11.3735 13.7811 10.4585 12.4949 10.4585C11.2088 10.4585 10.1661 11.3735 10.1661 12.5022C10.1661 13.631 11.2088 14.546 12.4949 14.546Z" fill="#F9FAF7"/>
</svg>
