<svg width="25" height="25" viewBox="0 0 25 25" fill="none" xmlns="http://www.w3.org/2000/svg">
<g clip-path="url(#clip0)">
<path d="M17.3225 17.3903C18.245 17.2901 18.9449 16.4557 18.9131 15.4544C18.8814 14.4531 18.086 13.6521 17.1316 13.6521H17.068C16.0817 13.6855 15.3182 14.5532 15.35 15.5879C15.3819 16.0885 15.5727 16.5224 15.859 16.8228C14.7774 19.0591 13.1231 20.6945 10.6416 22.063C8.95549 22.9975 7.20578 23.3313 5.45608 23.0977C4.02444 22.8974 2.91096 22.23 2.21096 21.1284C1.19299 19.493 1.09758 17.724 1.95657 15.955C2.56106 14.6867 3.51535 13.7521 4.11985 13.2849C3.9926 12.851 3.80168 12.1167 3.70627 11.5827C-0.906715 15.0873 -0.429469 19.8268 0.970336 22.063C2.02014 23.7319 4.15168 24.7665 6.50588 24.7665C7.14211 24.7665 7.77834 24.6998 8.41467 24.533C12.4868 23.6985 15.5728 21.1618 17.3225 17.3903ZM22.9217 13.2516C20.5038 10.281 16.9407 8.64558 12.8686 8.64558H12.3596C12.0733 8.04481 11.4688 7.64423 10.8007 7.64423H10.737C9.7509 7.67763 8.98742 8.54539 9.01916 9.58014C9.051 10.5814 9.84631 11.3825 10.8007 11.3825H10.8643C11.5642 11.3491 12.1687 10.8818 12.4232 10.2476H12.9958C15.4137 10.2476 17.7042 10.9819 19.7722 12.4171C21.3628 13.5186 22.5081 14.9538 23.1444 16.6893C23.6852 18.0912 23.6533 19.4596 23.0807 20.6278C22.19 22.3968 20.6947 23.3647 18.7223 23.3647C17.4497 23.3647 16.2408 22.9641 15.6045 22.6637C15.2546 22.9975 14.6183 23.5315 14.1729 23.8654C15.5409 24.5329 16.9407 24.9 18.2769 24.9C21.331 24.9 23.5898 23.131 24.4487 21.3621C25.3713 19.4262 25.3076 16.0885 22.9217 13.2516ZM6.76037 17.9576C6.79221 18.9589 7.58752 19.7599 8.54192 19.7599H8.60559C9.59182 19.7266 10.3553 18.8587 10.3235 17.8241C10.2917 16.8227 9.49631 16.0217 8.54192 16.0217H8.47834C8.41467 16.0217 8.31916 16.0217 8.25569 16.055C6.95129 13.7854 6.41047 11.3157 6.60139 8.64548C6.72854 6.64287 7.36487 4.90725 8.47834 3.47201C9.4009 2.23707 11.1824 1.6363 12.3914 1.603C15.7636 1.5362 17.1951 5.9419 17.2906 7.71092C17.7042 7.81102 18.4041 8.04471 18.8814 8.2116C18.4995 2.80465 15.3182 0.000976562 12.2642 0.000976562C9.4009 0.000976562 6.76037 2.17048 5.71047 5.37463C4.24709 9.64684 5.20149 13.7521 6.98303 16.9897C6.82405 17.2233 6.72854 17.5905 6.76037 17.9577V17.9576Z" fill="#F9FAF7"/>
</g>
<defs>
<clipPath id="clip0">
<rect width="25" height="25" fill="white"/>
</clipPath>
</defs>
</svg>
