<?xml version="1.0" standalone="no"?>
<!DOCTYPE svg PUBLIC "-//W3C//DTD SVG 20010904//EN"
 "http://www.w3.org/TR/2001/REC-SVG-20010904/DTD/svg10.dtd">
<svg version="1.0" xmlns="http://www.w3.org/2000/svg"
 width="548.000000pt" height="548.000000pt" viewBox="0 0 548.000000 548.000000"
 preserveAspectRatio="xMidYMid meet">
<metadata>
Created by potrace 1.11, written by Peter Selinger 2001-2013
</metadata>
<g transform="translate(0.000000,548.000000) scale(0.100000,-0.100000)"
fill="#000000" stroke="none">
<path d="M2652 5208 c-11 -24 -502 -1091 -1092 -2373 -1254 -2725 -1190 -2584
-1190 -2600 0 -38 37 -18 147 80 64 58 122 105 128 105 11 0 137 101 187 150
14 14 58 55 99 91 80 72 100 90 211 191 40 37 85 77 99 90 67 58 286 257 335
303 6 5 48 44 94 85 45 41 98 89 116 105 18 17 63 57 100 90 37 33 84 76 104
95 20 19 69 64 109 100 114 101 123 110 214 193 46 43 95 87 108 98 13 11 49
43 79 70 30 26 71 62 90 80 44 38 102 69 132 69 16 0 310 -260 1018 -901 1356
-1228 1239 -1125 1256 -1107 13 12 10 24 -22 94 -20 43 -41 99 -45 124 -5 25
-10 50 -12 55 -15 48 -27 77 -79 195 -33 74 -71 157 -84 184 -13 28 -24 56
-24 63 0 7 -4 13 -10 13 -5 0 -10 5 -10 10 0 10 -57 139 -137 310 -78 165
-143 306 -180 390 -51 113 -67 148 -124 269 -33 67 -59 125 -59 127 0 2 -19
43 -41 91 -23 49 -52 113 -66 143 -13 30 -30 66 -37 80 -8 14 -41 86 -74 160
-33 74 -80 178 -105 230 -139 295 -140 298 -141 355 -1 34 21 65 46 65 9 0 69
-19 134 -42 83 -29 121 -38 132 -31 18 11 122 281 115 299 -2 6 -147 62 -321
124 -174 62 -321 115 -327 117 -5 2 -32 33 -58 68 -48 63 -86 136 -157 295
-21 47 -61 135 -90 195 -29 61 -61 133 -72 160 -11 28 -28 66 -38 85 -22 41
-110 230 -110 235 0 4 -34 79 -125 272 -29 61 -68 127 -85 145 -18 19 -44 58
-59 88 -33 70 -54 75 -79 18z"/>
<path d="M1680 4317 c0 -3 20 -56 44 -119 25 -62 44 -113 43 -114 -1 -1 -51
11 -112 26 -183 46 -292 62 -475 67 -131 4 -196 1 -260 -10 -88 -15 -200 -53
-200 -66 0 -5 145 -37 323 -72 177 -35 325 -66 329 -69 4 -3 -248 -21 -560
-39 -312 -18 -580 -36 -597 -40 -27 -6 -21 -10 60 -35 242 -75 561 -218 720
-324 102 -68 200 -165 231 -228 15 -30 25 -57 22 -59 -2 -2 -33 5 -68 16 -146
45 -244 62 -395 66 -115 4 -166 1 -218 -11 -64 -15 -160 -56 -171 -74 -3 -5
22 -28 56 -53 84 -61 215 -203 288 -311 154 -233 268 -563 287 -831 3 -51 8
-97 12 -104 3 -6 66 124 139 290 73 166 290 655 481 1087 l348 785 -21 39
c-28 51 -105 119 -169 149 -49 23 -137 45 -137 34z"/>
</g>
</svg>
